<svg width="70" height="64" viewBox="0 0 70 64" fill="none" xmlns="http://www.w3.org/2000/svg">
<path fill-rule="evenodd" clip-rule="evenodd" d="M69.4073 32.7926C69.3823 32.8621 69.32 33.0366 69.2408 33.256C69.3106 33.2898 69.3862 33.3258 69.4914 33.3764C69.5447 33.5703 69.8397 33.7755 69.6603 34.0378C69.4988 34.2738 69.9254 34.5232 69.5993 34.7147C69.6548 35.2097 69.3062 35.5668 69.0766 35.9126C68.8684 36.2263 68.8175 36.6181 68.5025 36.8906C68.2286 37.1276 68.0745 37.5037 67.8668 37.8196C67.6861 37.8278 67.5182 37.835 67.2856 37.8454C67.3276 37.9794 67.3589 38.08 67.4086 38.2385C67.346 38.3088 67.2433 38.425 67.1317 38.5508C67.2007 38.7623 67.2652 38.9612 67.3413 39.1947C67.2331 39.318 67.1257 39.4406 67.0084 39.5743C67.1007 39.6073 67.1872 39.6381 67.3345 39.6905C67.1661 39.81 67.0276 39.9084 66.882 40.0117C66.9103 40.0449 66.9543 40.0963 67.0232 40.1767C66.5274 40.3613 66.0857 39.9169 65.5388 40.1317C65.2009 40.3754 64.9501 40.8726 64.4482 41.0563C64.2546 41.1275 64.4202 41.4824 64.0884 41.4406C63.9702 41.4258 64.0576 41.806 63.7807 41.7321C63.6774 42.0765 63.37 42.215 63.1275 42.432C62.9261 42.6117 62.7424 42.846 62.5803 43.0803C62.4451 43.2753 62.3009 43.4643 62.1578 43.6539C62.0284 43.8255 61.8765 43.9835 61.7699 44.1681C61.6793 44.3255 61.687 44.5944 61.5645 44.6656C61.3996 44.7612 61.287 44.8644 61.2518 45.0867C61.0898 44.99 60.9909 44.9312 60.8914 44.8719C60.5819 45.0232 60.2717 45.1672 59.9635 44.7886V44.0022C59.371 43.6684 58.7516 43.377 58.4741 42.6224C58.4958 42.3735 58.375 42.0208 58.6145 41.7296C58.2667 41.0352 58.5686 40.4473 58.9035 39.8683C59.3064 39.1714 59.8352 38.5764 60.4552 38.0283C60.0907 37.4814 59.7097 36.9719 59.399 36.4227C59.1853 36.045 58.9491 35.633 58.9373 35.2009C58.9252 34.7531 58.7843 34.2859 59.0513 33.8318C59.1705 33.6285 59.0559 33.3341 59.1897 33.0662C59.2699 32.9053 59.3196 32.7264 59.4432 32.572C59.51 32.4888 59.507 32.3495 59.5619 32.1287C59.6853 32.0141 59.9946 31.8598 60.0591 31.6356C60.1525 31.3098 60.5695 31.434 60.5635 31.053C60.6711 31.1346 60.7189 31.1708 60.7934 31.2271C60.9659 31.176 61.1609 31.1184 61.3645 31.0585C61.4386 31.1991 61.501 31.317 61.5765 31.4604C61.4274 31.7304 61.2645 32.0254 61.0771 32.3644C61.4474 32.3278 61.7334 32.2993 61.9776 32.2751C62.0773 32.3748 62.1303 32.4276 62.1891 32.4863C62.0891 32.6825 61.9883 32.8808 61.8554 33.1426C62.0902 33.1668 62.2726 33.1854 62.4987 33.2085C62.4429 33.4733 62.3874 33.739 62.3328 34.0002C62.2372 34.0854 62.1339 34.1777 62.0276 34.2727C62.0949 34.34 62.1226 34.376 62.1287 34.3724C62.2265 34.3183 62.3218 34.2592 62.438 34.1889C62.4773 34.2938 62.5017 34.3584 62.5333 34.4419C62.3212 34.5493 62.1196 34.6515 61.8897 34.7677C61.9963 34.8034 62.0809 34.8317 62.2375 34.8839C62.0589 35.0627 61.9004 35.2215 61.6938 35.4289C61.9573 35.6368 62.1908 35.8214 62.441 36.0192C62.8097 36.0893 63.1058 35.9338 63.3956 35.6833C64.0661 35.1045 64.8031 34.5993 65.4638 34.0175C66.1401 33.4217 66.8595 32.838 67.341 32.0397C67.4537 31.8529 67.6515 31.7177 67.8215 31.548H68.6099C68.653 31.6026 68.7272 31.6969 68.8041 31.7936C68.7178 32.0394 68.6294 32.2927 68.514 32.6218C68.753 32.5561 68.9469 32.5028 69.1994 32.4333C69.2392 32.502 69.301 32.6089 69.4073 32.7926Z" fill="black"/>
<path fill-rule="evenodd" clip-rule="evenodd" d="M21.8656 48.5702C21.6225 48.6455 21.4228 48.7076 21.1646 48.7875C21.2275 48.6526 21.269 48.5636 21.3214 48.4507C21.1495 48.1917 20.955 47.9598 20.5993 48.0112C20.5718 47.9063 20.5542 47.8387 20.5295 47.7447H19.9106C19.8488 47.6829 19.7952 47.6535 19.7812 47.6112C19.6864 47.3256 19.6664 46.986 19.4944 46.7619C19.273 46.4737 19.3832 46.1911 19.373 45.912C19.3645 45.6853 19.456 45.4532 19.5117 45.2258C19.7117 44.4127 20.021 43.6394 20.4149 42.904C20.6575 42.4519 20.9292 42.0116 21.2269 41.5937C21.5178 41.1855 21.8587 40.8128 22.1875 40.412C22.0983 40.3549 22.0005 40.2884 21.8988 40.2282C20.9163 39.647 20.0556 38.9152 19.2576 38.1037C18.881 37.7208 18.8788 37.2068 18.7689 36.7338C18.7247 36.5445 18.7618 36.336 18.7618 36.1363C18.9632 35.7523 19.3689 35.7199 19.7625 35.5633C19.8952 35.7968 20.0315 36.0369 20.1853 36.3069C20.2122 36.2872 20.2589 36.2528 20.3427 36.191C20.3941 36.2421 20.4844 36.2913 20.5097 36.3635C20.6663 36.8088 21.03 37.0354 21.4165 37.2283C22.2029 37.6214 22.9965 37.9991 23.8409 38.4092C24.0385 38.2004 24.236 37.8801 24.5227 37.72C24.787 37.5722 24.8007 37.1494 25.2128 37.1901C25.154 37.1178 25.1131 37.0676 25.0521 36.9928C25.1784 36.9044 25.3065 36.8148 25.4847 36.6901C25.541 36.566 25.627 36.3767 25.7111 36.1913C25.8385 36.1839 25.9569 36.177 26.1275 36.1671C26.055 36.0737 26.0171 36.0251 25.9583 35.9493C26.2764 35.9029 26.2976 35.5735 26.4978 35.3966C26.7093 35.2095 26.859 34.9527 27.0596 34.6956C27.1041 34.7282 27.1505 34.7623 27.2389 34.8274C27.2779 34.7357 27.3145 34.6491 27.3604 34.5406C27.4145 34.5843 27.4645 34.6244 27.5546 34.6975C27.6526 34.1714 27.951 33.7495 28.268 33.3701C28.5946 32.979 28.8882 32.5299 29.4228 32.2681C29.4898 32.3233 29.5796 32.3972 29.6813 32.4807C29.47 32.8864 29.2654 33.2886 28.8325 33.5004V34.0995C28.9349 34.0745 29.039 34.0791 29.0607 34.039C29.1475 33.8772 29.2088 33.7017 29.2431 33.619C29.5991 33.3256 29.89 33.0861 30.257 32.7839C30.2779 33.0639 30.2911 33.2465 30.3043 33.4218C30.1925 33.4677 30.1073 33.5026 30.0178 33.5394C30.0408 33.5715 30.0697 33.6336 30.0851 33.6303C30.2669 33.5929 30.4468 33.5457 30.668 33.491C30.7306 33.6014 30.807 33.7358 30.8839 33.8709C30.8427 33.9168 30.7935 33.9712 30.7405 34.03C30.7718 34.247 31.0328 34.4384 30.8309 34.687C30.7721 34.634 30.7199 34.5868 30.6666 34.5382C30.6419 34.5846 30.5938 34.6338 30.6037 34.6648C30.6312 34.7527 30.6825 34.8332 30.7402 34.9469C30.699 35.3274 30.3949 35.5801 30.1128 35.8369C29.8458 36.08 29.5522 36.2935 29.2088 36.569C29.35 36.65 29.4728 36.7209 29.6109 36.8006C29.5247 36.9662 29.4725 37.0662 29.4176 37.1711C29.4494 37.2066 29.4972 37.2588 29.5714 37.3406C29.4085 37.3667 29.2711 37.389 29.0742 37.4211C29.1278 37.5576 29.1736 37.6738 29.2266 37.8087H28.7278C28.6352 37.9985 28.5545 38.1642 28.4775 38.3218C28.549 38.3987 28.599 38.4526 28.6709 38.53C28.5179 38.5583 28.3809 38.5839 28.1814 38.6212C28.2298 38.7487 28.274 38.8635 28.3259 39.0001C28.1979 39.019 28.06 39.0393 27.8804 39.0657C27.9331 39.208 27.976 39.3234 28.0468 39.5146C27.8518 39.4387 27.7098 39.3835 27.5384 39.3171C27.4576 39.4709 27.3752 39.628 27.295 39.7807C27.3235 39.8351 27.3348 39.8947 27.3686 39.9131C27.4282 39.9456 27.5087 39.9395 27.5678 39.9725C27.7971 40.1005 27.8507 40.3972 28.0762 40.5243C28.3193 40.6617 28.4251 40.8974 28.58 41.1073C28.7196 41.2962 28.8231 41.4556 28.8075 41.6948C28.802 41.7767 28.875 41.8635 28.9204 41.966C28.8808 42.0333 28.8242 42.1291 28.747 42.2604C28.5446 42.2838 28.3973 42.5549 28.0279 42.4118C27.3826 42.1615 26.711 41.9374 26.0102 41.8531C25.9712 41.8484 25.9391 41.7863 25.8753 41.7226C25.6704 41.9536 25.4669 42.183 25.2114 42.4711C25.2081 42.4983 25.1944 42.6162 25.1793 42.7433C25.0359 42.7659 24.8985 42.7876 24.6851 42.8211C24.826 43.0189 24.9312 43.1666 25.0881 43.387C24.9109 43.335 24.7928 43.3007 24.6428 43.2568C24.6117 43.2936 24.5488 43.368 24.4804 43.4488C24.5672 43.6886 24.4975 43.8353 24.2165 43.9949C24.1324 44.297 24.0516 44.5874 23.9843 44.8297C23.8574 44.8764 23.7866 44.9025 23.6951 44.9362L23.8591 45.1002C23.6352 45.2716 23.3784 45.4104 23.2047 45.6186C23.0479 45.8062 22.9825 46.0699 22.8606 46.3358C22.8724 46.354 22.9215 46.4276 22.9995 46.5443C22.8345 46.7144 22.6724 46.8814 22.5164 47.0418C22.5771 47.1176 22.6218 47.1734 22.6993 47.2701C22.5892 47.3959 22.4809 47.5195 22.3603 47.6571V48.0939C22.1834 48.2642 22.004 48.437 21.8656 48.5702Z" fill="black"/>
<path fill-rule="evenodd" clip-rule="evenodd" d="M40.2888 51.5555C40.6349 51.9741 40.6351 51.975 41.0552 51.7428C41.067 51.8769 41.0628 51.9936 41.0917 52.1013C41.1123 52.1777 41.1771 52.2422 41.2189 52.3071C41.1656 52.3606 41.1302 52.3958 41.0851 52.4408C41.1898 52.4897 41.2898 52.5367 41.4535 52.6133C41.2832 52.8559 41.1225 53.0845 40.962 53.3133C41.1689 53.6852 40.7313 53.7511 40.6684 53.9503C40.5714 54.258 40.1973 54.3242 40.1866 54.653C40.1742 55.0364 39.7808 55.0837 39.61 55.307C39.4616 55.5012 39.1979 55.6281 39.1639 55.8759C39.2229 55.977 39.2696 56.0569 39.3463 56.1885C39.1246 56.3138 38.9315 56.4234 38.7378 56.533L38.2706 56.7538C38.1285 56.9214 37.9865 57.089 37.7967 57.3126V57.4595C37.3185 57.8109 36.8718 58.1397 36.3532 58.521C36.5015 58.5965 36.5913 58.6424 36.7402 58.7185C36.5342 59.0066 36.3257 59.2984 36.1016 59.6118C36.677 59.8079 37.2185 59.9928 37.7769 60.1834C37.7217 60.2944 37.675 60.3881 37.6118 60.515C37.8607 60.6037 38.0934 60.6867 38.359 60.7814V61.1072C38.526 61.2608 38.6724 61.3951 38.8241 61.5347C38.8334 61.7107 38.8419 61.8789 38.8504 62.0396L39.1221 62.311L38.4329 62.8845C38.2706 63.0653 38.1013 63.0318 37.9195 62.9112C37.8643 62.8746 37.7868 62.8538 37.7198 62.8551C36.9462 62.8722 36.2471 62.5777 35.5434 62.3203C35.0242 62.1308 34.5245 61.8882 33.9861 61.6564C33.8392 61.8028 33.6103 61.9137 33.5809 62.2159C33.27 62.2895 32.9511 62.3653 32.6527 62.4359C32.4989 62.2802 32.3761 62.156 32.2531 62.0313C32.2998 61.9797 32.3481 61.9264 32.4195 61.8475C32.3454 61.6932 32.2654 61.527 32.2176 61.4281C31.9861 61.4638 31.7811 61.4957 31.5812 61.5264C31.4705 61.3078 31.371 61.1103 31.2691 60.9084C31.2194 60.9581 31.1842 60.9932 31.1713 61.0062C31.0057 60.8378 30.8386 60.6683 30.6079 60.4342C30.6796 59.9145 30.3469 59.3176 30.4362 58.6723C30.4552 58.5372 30.3516 58.3416 30.2426 58.2394C29.8006 57.8246 29.7816 57.2252 29.5739 56.7151C29.4946 56.5204 29.41 56.2731 29.4031 56.0377C29.3915 55.6639 29.3479 55.2798 29.4119 54.9167C29.513 54.3423 29.6217 53.7297 30.2906 53.5036C30.5118 53.4289 30.7551 53.4207 31.0466 53.3723V54.5406C31.3001 54.3775 31.4699 54.2681 31.7232 54.105C31.7583 54.2082 31.8006 54.3313 31.8424 54.4544C31.88 54.4258 31.9177 54.3972 31.9553 54.3687V55.0579C32.0841 54.9925 32.1772 54.9452 32.2651 54.9005C32.583 55.1785 32.5747 55.5345 32.5308 55.9006C32.6371 55.9383 32.7236 55.9688 32.8623 56.0179C32.8033 56.1784 32.7442 56.3377 32.6728 56.5302C32.7593 56.5146 32.8027 56.5193 32.8269 56.4998C32.8851 56.4536 32.9252 56.3712 32.989 56.347C33.6287 56.1039 33.9507 55.4238 34.5929 55.1873C34.722 54.7222 35.2124 54.623 35.4989 54.3096C35.7969 53.9838 36.2175 53.7717 36.5771 53.5001C36.9251 53.2369 37.1212 52.7936 37.5753 52.6543C37.8736 52.1112 38.303 51.6997 38.8373 51.3926C38.8186 51.0248 39.3246 50.9792 39.3128 50.5913H39.9882C40.0366 50.6394 40.1072 50.71 40.1778 50.7806C39.8545 50.9415 39.7363 51.2539 39.5295 51.5841C39.977 51.6766 40.2346 51.1319 40.6563 51.3833C40.5343 51.4404 40.4346 51.4871 40.2888 51.5555Z" fill="black"/>
<path fill-rule="evenodd" clip-rule="evenodd" d="M38.5511 43.6373C38.5162 43.287 39.009 43.2486 38.7755 42.9222C38.7159 42.9755 38.6629 43.0225 38.6099 43.0695C38.5923 43.0516 38.5618 43.036 38.5588 43.0162C38.5033 42.6492 38.5256 42.3012 38.786 42.002C39.0725 41.6735 39.3565 41.3422 39.6312 41.0038C39.718 40.8969 39.7716 40.7631 39.857 40.6126C39.7213 40.2591 39.5353 39.8926 39.3738 39.5284C39.2005 39.1372 39.2043 38.7131 39.0159 38.326C38.9156 38.1206 39.1771 37.7599 39.1159 37.5083C39.0469 37.2267 38.8807 36.9872 39.1236 36.7218C39.1285 35.9796 39.6331 35.517 40.0746 35.0016H41.3225C41.3956 35.0709 41.4678 35.1395 41.5849 35.2502C41.395 35.4923 41.205 35.7343 40.9948 36.0021C41.0182 36.0521 41.0745 36.1716 41.1497 36.3317C41.2201 36.3317 41.3547 36.3721 41.4027 36.3246C41.6112 36.1199 41.8521 36.2026 42.0716 36.1784C42.1527 36.354 42.2202 36.5007 42.2955 36.6636C42.1829 36.8042 42.0667 36.9495 41.8903 37.1696C42.1571 37.2036 42.3359 37.2264 42.571 37.2564V37.9744C43.077 37.9909 43.1325 37.378 43.5586 37.3805C43.7519 37.086 44.0341 36.8811 44.2881 36.6463C44.5812 36.3757 44.8601 36.0889 45.1364 35.8007C45.3908 35.5351 45.649 35.2706 45.8775 34.9838C46.1127 34.6882 46.3149 34.3663 46.4508 34.1712C46.7604 34.0603 46.9348 33.9976 47.1513 33.9202C47.2222 34.021 47.3384 34.1234 47.368 34.2468C47.3908 34.3416 47.3153 34.4676 47.2645 34.5701C47.2065 34.6866 47.1271 34.7921 47.128 34.997C47.3463 34.905 47.5647 34.8127 47.8051 34.7113C47.9334 34.9613 48.0707 35.2288 48.2789 35.6345C48.2789 35.626 48.2669 35.7735 48.2831 35.9178C48.2957 36.0298 48.3432 36.1381 48.3852 36.2817C48.3556 36.3334 48.3012 36.429 48.2509 36.5174C48.3265 36.599 48.3767 36.6531 48.4215 36.7012C47.9875 37.3962 47.5969 38.1156 47.1208 38.7883C46.7211 39.3531 46.7772 39.3927 46.4843 39.5525C46.531 39.6045 46.5783 39.6567 46.6162 39.6987C46.0234 40.3629 45.4356 41.0219 44.8389 41.6908V41.9394C45.3075 42.238 45.7611 42.5267 46.2352 42.8286C46.1665 42.9632 46.1245 43.0456 46.0597 43.1733C46.239 43.3274 46.3596 43.6238 46.7069 43.5145C46.7829 43.6656 46.845 43.7889 46.906 43.9103C46.8623 43.9713 46.8079 44.0469 46.7335 44.1504C46.9214 44.3386 47.0901 44.5075 47.2725 44.6902C47.203 44.869 47.1439 45.0215 47.0782 45.1904C47.1263 45.2728 47.184 45.3723 47.2373 45.4637C47.2109 45.5206 47.2027 45.5794 47.17 45.6011C47.0964 45.6492 46.9881 45.6585 46.9343 45.7195C46.6121 46.0832 46.5544 46.1035 46.1492 45.9651C45.6245 45.7857 45.0603 45.6802 44.581 45.4184C43.9387 45.0679 43.3616 44.5982 42.6982 44.1391C42.4197 44.3452 42.1071 44.6278 41.806 44.9495C41.5148 45.2607 41.1311 45.5074 40.5976 45.6662C40.6915 45.511 40.73 45.4475 40.8132 45.3091C40.4789 45.3714 40.1985 45.4236 39.9183 45.4758L39.8702 45.3794C40.0389 45.2478 40.2073 45.1165 40.3759 44.9852L40.1152 44.7245H39.6037C39.5356 44.5534 39.4598 44.3617 39.3703 44.1364H38.7494C38.664 43.9213 38.5874 43.7285 38.5511 43.6373Z" fill="black"/>
<path fill-rule="evenodd" clip-rule="evenodd" d="M41.8005 28.9376C41.5434 28.9991 41.3168 29.0535 40.997 29.1301C40.6687 28.8876 40.2762 28.5854 39.871 28.3019C39.3878 27.9638 38.9681 27.533 38.4165 27.2949C38.2888 27.2397 38.1547 27.1998 37.9773 27.1361C37.7622 26.8139 37.7372 26.2156 37.1062 26.2815C36.8208 26.0206 36.7859 25.5673 36.3686 25.5234C36.2321 25.2907 36.1459 25.0245 35.9665 24.8583C35.1476 24.0988 34.5551 23.1865 34.0455 22.0858C34.0013 21.746 34.001 21.293 33.9277 20.8387C33.8123 20.1231 34.1936 19.5086 34.8133 19.112C34.9844 19.0026 35.0726 18.7623 35.3569 18.7878C35.5547 18.8057 35.7635 18.7005 36.0261 18.6359C36.1038 18.7051 36.2068 18.7966 36.3368 18.912C36.1255 19.2666 35.7261 19.4905 35.6959 19.9668C36.1659 20.1237 36.3766 19.6015 36.8496 19.5413C36.9073 19.5929 37.0098 19.6841 37.1059 19.7704C36.9384 20.0217 36.8255 20.191 36.6175 20.5027C36.9408 20.4006 37.1708 20.3989 37.2556 20.2871C37.4702 20.0042 37.8171 19.8907 38.0185 19.5759C38.2061 19.2828 38.5137 19.0644 38.8283 18.8601C39.273 18.5713 39.6334 18.1563 40.0504 17.8206C40.6632 17.3272 41.2376 16.7866 41.9203 16.3765C42.1903 16.2147 42.39 15.9329 42.6141 15.698C42.818 15.4843 43.1418 15.3909 43.2058 15.0723H44.2134V15.7222C44.1854 15.7502 44.0887 15.8469 43.9722 15.9637C44.1057 15.9398 44.239 15.9208 44.3697 15.8911C44.5027 15.8609 44.6334 15.8203 44.8351 15.7651C44.8043 16.2488 44.8276 16.677 45.1771 16.9891C45.1034 17.0883 45.0614 17.1449 44.9768 17.2594C45.0834 17.3182 45.207 17.3858 45.4369 17.5118C45.2001 17.5767 45.1196 17.5986 45.0098 17.6289C45.0515 17.7245 45.1076 17.8137 45.1279 17.9107C45.1485 18.0063 45.1326 18.1093 45.1326 18.2074C44.8548 18.5887 44.5768 18.9699 44.2717 19.3886C44.2156 19.3949 44.0975 19.4078 43.9239 19.4268C43.9766 19.4993 44.0091 19.5446 44.0516 19.6034C44.0069 19.7105 43.9571 19.8295 43.9014 19.9619C43.2421 19.93 43.2374 20.6093 42.8298 20.8739C42.916 20.9873 42.9589 21.0436 42.9784 21.0694C42.7073 21.3408 42.4337 21.6144 42.1573 21.8905C42.1796 21.9108 42.1441 21.8787 42.1595 21.8924C42.0365 22.0152 41.9095 22.1421 41.7826 22.2693C41.7414 22.2372 41.7005 22.2053 41.6593 22.1732V22.5676C41.5722 22.4959 41.5217 22.4542 41.4082 22.3611C41.4332 22.5292 41.45 22.641 41.4733 22.7981C41.2863 23.0404 41.0613 23.3318 40.8176 23.6477C40.708 23.5675 40.6333 23.5123 40.5668 23.4634C40.2971 23.7788 40.0205 24.1021 39.7414 24.4284C39.8488 24.482 39.9479 24.5312 40.0924 24.6029C39.9578 24.7734 39.8422 24.9201 39.7337 25.0578C39.7513 25.1185 39.7513 25.1745 39.779 25.2058C40.2353 25.7173 40.7764 26.1747 41.1322 26.7477C41.5329 27.393 42.0337 28.0591 41.8005 28.9376Z" fill="black"/>
<path fill-rule="evenodd" clip-rule="evenodd" d="M52.1947 18.1068C52.2408 18.0607 52.2762 18.0253 52.3128 17.9887C52.2859 17.9541 52.2631 17.9143 52.2309 17.8849C52.0367 17.7077 51.7914 17.5558 51.6343 17.3822C51.4802 17.2124 51.3077 17.083 51.1516 16.9276C50.9442 16.7207 50.713 16.4246 50.702 16.1584C50.6825 15.6821 50.6536 15.2044 50.7668 14.7053C50.9621 13.8436 51.4134 13.1911 52.0112 12.5959C52.7699 11.8402 53.5261 11.082 54.3222 10.286C54.02 10.0258 54.0046 9.53466 53.5261 9.43907C53.325 9.04818 53.1248 8.65728 52.9237 8.26639C52.7383 7.90571 52.7715 7.51647 52.7734 7.13107C52.7751 6.85665 52.774 6.58223 52.774 6.3078C53.0264 5.98559 53.2789 5.66337 53.5272 5.34692H54.7752C54.5752 5.68836 54.404 5.98037 54.2362 6.26715C54.6977 6.60228 54.8672 5.87626 55.2726 6.09766C55.5256 6.44405 55.0548 6.60722 54.9056 6.94235C55.1935 6.8734 55.3608 6.83302 55.5655 6.78385C55.6869 7.13986 55.6262 7.45137 55.4347 7.78595C55.5369 7.82578 55.6174 7.85709 55.7388 7.90407C55.8253 7.99691 55.6457 8.01037 55.6152 8.14717C55.7355 8.33122 55.8819 8.55537 56.0629 8.83254C57.2991 7.53542 58.8753 6.66601 59.8392 5.18457H60.5908C60.5328 5.4318 60.4823 5.64771 60.413 5.94301C60.6218 5.86939 60.7825 5.8128 61.0028 5.73506V6.31632C61.1231 6.34791 61.1907 6.36549 61.2583 6.38335C61.2772 6.42537 61.3069 6.4663 61.3121 6.50998C61.3212 6.5836 61.3022 6.66161 61.3165 6.73386C61.469 7.5118 61.0816 8.12904 60.6751 8.71195C60.2356 9.34265 59.7252 9.92418 59.2093 10.5727C59.5774 11.0147 60.1661 11.2295 60.6842 11.6421C60.6938 11.7103 60.7094 11.8251 60.7278 11.9572C60.8652 12.1289 61.0871 12.2951 61.15 12.5083C61.2879 12.9755 61.6291 13.4106 61.3973 14.0139C61.3407 14.0397 61.216 14.1009 61.0882 14.1553C60.9608 14.2094 60.8308 14.2561 60.6861 14.3125C60.4878 14.1108 60.0397 14.1748 60.0999 13.7823C59.6425 13.6502 59.2401 13.5337 58.85 13.4208C58.7607 13.2656 58.6797 13.1249 58.5882 12.9659H57.7608C57.74 12.8766 57.7238 12.809 57.704 12.7255C57.398 12.4901 57.1408 12.7673 56.962 12.8151C56.7175 13.0986 56.5305 13.3156 56.3236 13.5548C56.2643 13.5098 56.2168 13.4735 56.1344 13.4112C56.0459 13.5362 55.9506 13.6708 55.8344 13.8348C55.819 13.8147 55.8566 13.8633 55.9124 13.9353C55.5652 14.0224 55.535 14.3712 55.3822 14.6583C55.2622 14.5844 55.1834 14.5358 55.0625 14.4613C55.0419 14.5905 55.0218 14.7168 54.9977 14.8662C54.946 14.8803 54.8787 14.8984 54.7584 14.9311C54.7263 15.2346 54.6831 15.6044 54.2332 15.5035C54.0821 15.6994 53.8288 15.8815 53.8461 16.0332C53.8978 16.4889 53.5162 16.7067 53.4121 17.063C53.3629 17.5132 53.3698 17.5129 53.5096 17.8137C53.1836 18.0736 52.8155 18.2486 52.3927 18.3565C52.3375 18.2868 52.2757 18.2093 52.1947 18.1068Z" fill="black"/>
<path fill-rule="evenodd" clip-rule="evenodd" d="M8.38332 9.64262C8.19681 9.6657 8.08445 9.67971 7.94271 9.69729C8.02897 9.79288 8.07814 9.847 8.1567 9.93408C7.97073 10.2799 7.6183 10.4873 7.37931 10.7898L7.49633 10.9068C7.30597 11.0562 7.11533 11.2056 6.95325 11.3328C6.8637 11.5688 7.05489 11.835 6.73982 11.9811C7.01891 12.1682 7.2741 12.3352 7.5249 12.5083C8.31135 13.0516 9.15247 13.5178 9.80076 14.2496C10.1721 14.6685 10.5218 15.0734 10.5284 15.675C10.5295 15.7763 10.6325 15.8763 10.7147 16.0249C10.4886 16.168 10.2768 16.3018 10.0115 16.4697C8.51628 15.5936 6.97056 14.813 5.55285 13.6688C5.45121 13.7268 5.22926 13.7757 5.18833 13.8897C5.02598 14.3413 4.70789 14.6583 4.38402 14.9816C4.34446 15.0212 4.3593 15.1149 4.34858 15.1841C4.20986 15.1995 4.09202 15.2121 3.91209 15.2319C3.9467 15.3503 3.97609 15.4508 4.02746 15.6269C3.73903 15.8683 3.52367 16.2276 3.41022 16.6738C3.34429 16.9328 3.09597 17.1451 2.87346 17.458V19.0859C2.73172 19.0949 2.6136 19.1023 2.47982 19.1109C2.45098 19.1919 2.42021 19.2787 2.3834 19.3828H1.86698C1.78621 19.1488 1.70353 18.9087 1.60794 18.6321C1.46427 18.6952 1.32088 18.7582 1.15002 18.8331C1.11486 18.7244 1.08711 18.6392 1.05937 18.5541C1.01706 18.5365 0.970366 18.4975 0.932183 18.5046C0.615184 18.5648 0.398173 18.2967 0.359167 18.1261C0.200117 17.4316 -0.249286 16.7449 0.182262 15.9994C0.190228 15.261 0.648697 14.6976 0.90856 14.0553C0.993441 13.8458 1.35824 13.8826 1.25935 13.5205C1.21869 13.3716 1.48899 13.1357 1.62195 12.942C1.74254 12.7665 1.85599 12.5843 1.99471 12.4242C2.1576 12.236 2.35594 12.0784 2.51746 11.8894C2.65178 11.7317 2.75534 11.5479 2.88692 11.3545C1.97658 10.6708 1.41977 9.69949 0.78165 8.79381C0.577001 7.91753 0.223467 7.06652 0.361364 6.04053C0.572056 5.79852 0.841534 5.48866 1.13134 5.15601C1.45218 5.22193 1.81286 5.02305 2.10596 5.35736C1.91395 5.61612 1.72331 5.87296 1.53075 6.13255C1.58376 6.18859 1.63293 6.24133 1.68156 6.29297C2.08811 6.37703 2.23699 5.78534 2.66167 5.92241C2.72485 6.04492 2.78776 6.16771 2.85369 6.29517C2.72293 6.37895 2.57322 6.4751 2.41609 6.57564C2.51196 6.67178 2.58256 6.74238 2.65316 6.81298C2.86522 6.59349 3.07124 6.59075 3.32039 6.89099C3.29787 7.05828 3.42753 7.30001 3.17728 7.49477C3.28111 7.54477 3.38275 7.59366 3.52806 7.66316C3.40857 7.82386 3.30254 7.96615 3.19403 8.11201C3.29512 8.148 3.38193 8.17849 3.5635 8.24304C3.39649 8.28809 3.31737 8.30925 3.17893 8.34661C3.19348 8.4683 3.16437 8.63476 3.23359 8.72788C3.52037 9.11356 3.83682 9.47698 4.17607 9.8893C4.36287 9.72174 4.50626 9.59702 4.64498 9.46764C5.46467 8.70344 6.15059 7.78705 7.16724 7.2459C7.16175 6.96433 7.4565 6.98411 7.58341 6.8333C7.72708 6.66272 7.88667 6.50559 7.98968 6.39544H8.4932C8.26493 6.73139 7.87596 6.92121 8.00287 7.40522C8.32811 7.21128 8.64648 7.02147 9.03436 6.79045C8.99974 7.01213 8.97282 7.18299 8.94261 7.3772C9.07831 7.4456 9.27993 7.54806 9.4964 7.65739C9.44063 7.77304 9.39393 7.86946 9.33954 7.98236C9.41783 7.99884 9.48596 8.01285 9.5571 8.02768C9.56452 8.0568 9.59309 8.10652 9.57935 8.12493C9.39695 8.37105 9.15275 8.58861 9.03655 8.86139C8.89096 9.20366 8.56984 9.35776 8.38332 9.64262Z" fill="black"/>
<path fill-rule="evenodd" clip-rule="evenodd" d="M22.0579 17.2894C22.6548 16.557 23.1589 15.9483 23.6525 15.3311C24.12 14.7465 24.5197 14.1153 24.8832 13.4684C24.8367 13.4109 24.7917 13.3555 24.7145 13.2604C24.8414 13.1165 24.9669 12.9736 25.1002 12.8223H25.5938C25.7784 13.0069 25.927 13.2703 26.1382 13.3376C26.3962 13.4195 26.4327 13.6258 26.5368 13.7799C26.8978 14.3136 27.1489 14.8553 26.8714 15.5508C26.7008 15.9785 26.528 16.4065 26.3506 16.8323C26.2973 16.9606 26.2583 17.0949 26.1904 17.2902L25.8122 17.6687V18.1401C25.5161 18.6766 25.2697 19.1238 24.9999 19.6128C25.3727 19.866 25.716 20.1102 26.0698 20.3382C26.7709 20.7901 27.3508 21.3513 27.6971 22.1224C27.7716 22.2883 27.8057 22.4726 27.8831 22.7317C27.8565 22.7907 27.7914 22.936 27.7194 23.0954C27.565 23.1673 27.3983 23.2451 27.2681 23.3055C26.9159 23.1838 26.6044 23.0929 26.3066 22.969C26.0086 22.8454 25.7243 22.6888 25.4339 22.5468C25.3845 22.1131 24.89 22.2883 24.6865 21.9933C24.5195 21.751 24.1481 21.6502 23.8223 21.4604C22.846 22.4564 21.9862 23.5445 21.1973 24.6905C21.1366 24.7784 21.1561 24.9215 21.1385 25.0388C20.7946 25.3036 20.4545 25.2633 20.1133 25.0226V24.7845C19.67 24.5188 19.2544 24.27 18.7997 23.9975C18.5822 23.7425 18.6929 23.342 18.5511 23.0322C18.3932 22.6872 18.5267 22.3531 18.4668 22.0993C18.9623 20.9948 19.5488 20.0273 20.3886 19.1925V18.6826C19.9032 18.3445 19.6016 17.8173 19.2961 17.3004C19.1936 17.127 19.1777 16.9007 19.1307 16.6969C19.0354 16.2821 18.8929 15.8807 18.9055 15.4401C18.9299 14.5974 19.4085 13.996 20.213 13.6936C20.7204 13.503 21.2132 13.5988 21.7588 13.5453C21.4651 14.1532 20.7616 14.1013 20.3504 14.6108C21.0597 14.5795 21.4918 13.9114 22.215 14.0389C22.187 14.2092 22.159 14.3798 22.1293 14.5594C22.262 14.6061 22.4568 14.6751 22.6441 14.7416V15.6928C22.4513 16.0293 22.2395 16.365 22.0667 16.7199C22.0109 16.8339 22.0579 16.9982 22.0579 17.2894Z" fill="black"/>
<path fill-rule="evenodd" clip-rule="evenodd" d="M34.7178 7.964C34.4373 8.31561 34.1813 8.63701 33.8981 8.99191V9.95308C33.6347 10.0588 33.3784 10.1621 33.0888 10.2783C32.7466 9.94594 32.6079 9.50505 32.4983 9.08833C32.3516 9.143 32.2219 9.19107 32.0293 9.26249C31.8783 9.04521 31.6945 8.85319 31.5953 8.62465C31.2987 7.93983 31.3223 7.20858 31.3547 6.52047C31.4791 6.23698 31.5901 5.98371 31.7286 5.66754C31.5214 5.6365 31.3379 5.66534 31.2618 5.58842C30.7778 5.09919 30.3001 4.60144 29.8565 4.07595C29.6175 3.79246 29.3653 3.47189 29.27 3.1266C29.131 2.62115 29.1277 2.07835 29.0621 1.51385C29.2901 1.19328 29.4755 0.817771 29.765 0.559007C30.0312 0.32112 30.4097 0.209044 30.8201 0C30.9157 0.103561 31.0088 0.203825 31.1031 0.305737C31.0481 0.358479 30.3166 1.06308 30.3166 1.06308C30.3694 1.11609 30.4224 1.16911 30.5004 1.24685C30.8352 1.00264 31.1687 0.68317 31.7132 0.893862C31.578 1.07901 31.4728 1.22295 31.2879 1.47594C31.5379 1.37843 31.6775 1.32431 31.8708 1.24904C31.962 1.38639 32.0598 1.53391 32.1785 1.71301C31.9719 1.91985 31.8096 2.0822 31.6137 2.27833C31.7401 2.30415 31.8082 2.31844 31.9214 2.34179C31.7516 2.62802 31.8475 3.02386 31.4099 3.17C31.8442 3.70428 32.3277 3.99876 32.8183 4.32455C34.4697 2.95518 36.0852 1.61549 37.7224 0.25794H38.4452C38.3185 0.51176 38.218 0.714211 38.1161 0.919134C38.3331 1.08478 38.5048 0.898807 38.6971 0.815299C39.2525 1.33365 39.3832 1.98084 39.269 2.70274C39.0382 2.99886 38.8012 3.30295 38.5592 3.61336C38.5748 3.62764 38.6108 3.66115 38.7097 3.75263C38.5765 3.76966 38.4482 3.78614 38.3196 3.80262C38.3699 3.85646 38.4202 3.91058 38.4704 3.96469H38.1916C37.6782 4.9308 36.8104 5.58815 36.1751 6.46828C37.0459 6.95339 38.0202 7.31434 38.9415 7.86346C38.9696 8.00191 39.0011 8.15903 39.0382 8.34473C39.1514 8.22496 39.2363 8.13514 39.3181 8.04861C39.689 8.0986 39.6813 8.52493 39.9925 8.68096C40.265 8.81776 40.4241 9.1809 40.6361 9.44736V10.3368C40.5642 10.4088 40.4936 10.4794 40.3947 10.5783C39.6233 10.4959 38.9855 10.0564 38.2831 9.70091C38.2688 9.71382 38.2166 9.76106 38.1938 9.78167C37.7024 9.66025 37.4093 9.13283 36.8423 9.21167C36.578 8.87187 36.1435 8.8455 35.8045 8.64525C35.462 8.44307 35.1301 8.22359 34.7178 7.964Z" fill="black"/>
<path fill-rule="evenodd" clip-rule="evenodd" d="M56.5342 19.933C56.6889 20.0204 56.8105 20.089 56.9891 20.1899C56.9484 20.4338 56.9072 20.6796 56.857 20.9823C56.9825 21.2005 57.0877 21.5326 57.4687 21.6666C57.6393 21.4287 57.744 21.1565 58.0722 21.0236C58.3027 20.9299 58.4381 20.6016 58.6148 20.3772C58.809 20.1302 59.0787 19.9616 59.2317 19.6608C59.3603 19.4078 59.6366 19.2347 59.8111 18.999C59.991 18.7554 60.1272 18.4793 60.2824 18.2178H61.1269C61.1714 18.4546 61.2444 18.6886 60.9656 18.9331C61.2062 18.9441 61.3925 18.9526 61.5628 18.9603C61.6389 19.3097 61.7076 19.6262 61.7751 19.9355C61.6537 19.983 61.5677 20.0165 61.4664 20.0561C61.4771 20.1247 61.4754 20.1964 61.4999 20.2574C61.7087 20.773 61.6746 20.9499 61.2733 21.348C61.1057 21.5139 61.0357 21.7721 61.1038 21.9333C61.2109 22.1866 60.8892 22.0891 61.0411 22.3229C60.8802 22.1902 60.8296 22.1484 60.7423 22.0765V22.4937C60.584 22.5242 60.4473 22.5503 60.2846 22.5814V22.9909C60.0929 23.1906 59.9577 23.3318 59.8451 23.4494C60.1064 23.7051 60.3473 23.9408 60.5475 24.1372V24.7015C60.709 24.863 60.878 25.0319 61.051 25.2055C60.9972 25.3011 60.9629 25.3613 60.9027 25.467C60.9813 25.6264 61.0777 25.8225 61.2021 26.0755C61.0576 26.3771 60.898 26.7103 60.7464 27.0268H60.122C59.3946 26.6106 58.6895 26.2065 57.9862 25.8038C57.8615 25.9964 57.7624 26.1497 57.6783 26.2796C57.5487 26.2164 57.4487 26.1675 57.2767 26.0837V26.7809C57.0487 26.696 56.8894 26.6367 56.5911 26.5257C56.7141 26.6938 56.7479 26.7397 56.8127 26.8282C56.6754 26.9573 56.5301 27.0938 56.3002 27.3097C56.254 27.0309 56.2252 26.8562 56.1936 26.6639C56.2988 26.6276 56.3839 26.5982 56.4922 26.5606C56.5029 26.5043 56.5158 26.4362 56.5315 26.3529C56.4367 26.32 56.3496 26.2903 56.2622 26.2601C56.2944 26.1277 56.3271 25.9942 56.3826 25.7678C56.2438 25.895 56.1903 25.9442 56.1584 25.9733C55.8395 25.9134 55.5379 25.8571 55.2201 25.7978C55.1712 25.7038 55.1077 25.5813 55.0327 25.4379C55.0893 25.2187 55.1536 24.9698 55.2187 24.716C55.3651 24.7402 55.5511 24.7712 55.737 24.802C55.7447 24.7745 55.7521 24.7471 55.7601 24.7193C55.5659 24.6218 55.372 24.5243 55.2008 24.4383C55.3011 24.2312 55.4008 24.0249 55.5046 23.8101C55.0118 22.9731 54.4748 22.183 54.1713 21.2738C53.9891 20.6475 54.2048 20.0286 54.2949 19.4122C54.3649 18.9328 54.7613 18.5939 55.1951 18.3513C55.2569 18.3167 55.3154 18.2769 55.4143 18.2153H56.1592C56.2768 18.3329 56.3826 18.4389 56.457 18.5134C56.3103 18.6601 56.1612 18.809 56.0727 18.8971V19.3581C56.2378 19.3152 56.3963 19.2743 56.5776 19.2273C56.6726 19.316 56.7597 19.3976 56.8806 19.5105C56.7537 19.6655 56.649 19.7932 56.5342 19.933Z" fill="black"/>
<path fill-rule="evenodd" clip-rule="evenodd" d="M11.4807 27.627C11.5653 27.7116 11.6359 27.7822 11.7359 27.8822C11.2769 28.2747 10.8203 28.6648 10.3641 29.0551C10.3742 29.0815 10.3847 29.1079 10.3951 29.134C10.4921 29.1057 10.6105 29.1032 10.6811 29.0439C10.8129 28.9335 10.9168 28.7903 11.0978 28.7546C11.4178 28.5741 11.7378 28.3934 12.0491 28.2176C12.3205 28.4371 12.1224 28.6104 12.0057 28.8766C12.1834 28.8093 12.2985 28.7656 12.4224 28.7184C12.4765 28.7725 12.5471 28.8431 12.6179 28.9139C12.6182 29.2131 12.6182 29.5125 12.6182 29.8155C12.5309 29.9007 12.4419 29.988 12.3476 30.0798C12.3614 30.1144 12.365 30.1622 12.3905 30.1808C12.5608 30.3086 12.7309 30.438 12.9105 30.5517C13.1036 30.6737 13.3739 30.7088 13.3813 31.0211C13.3822 31.0571 13.4431 31.0978 13.4832 31.1261C13.6373 31.2346 13.8178 31.3167 13.9434 31.451C14.0686 31.5848 14.1398 31.7691 14.2664 31.9856C14.2664 32.1122 14.2664 32.3119 14.2661 32.5114C14.1422 32.635 14.0189 32.7586 13.9156 32.8619C12.9709 32.5243 12.0372 32.1908 11.1038 31.8573C10.8964 31.968 10.6731 32.087 10.4495 32.2059C10.4402 32.1908 10.4308 32.1757 10.4215 32.1606C10.2273 32.3545 10.0331 32.5487 9.78501 32.7968C9.78143 32.8558 9.77429 32.9718 9.76523 33.1196C9.37186 33.4978 8.96009 33.8942 8.62798 34.2139C8.46124 34.7312 8.54585 35.2625 7.85664 35.3715C7.71407 35.1435 7.20203 35.107 7.31878 34.5754C7.17704 34.5345 7.00288 34.4837 6.81306 34.4288C6.77021 34.4576 6.69302 34.5092 6.63286 34.5493C6.44003 34.3455 6.27164 34.167 6.02688 33.9079C5.97222 33.4407 5.90217 32.8427 5.82855 32.2133C6.45074 31.5406 7.06386 30.8778 7.71434 30.1743C7.45997 30.0149 7.19764 29.8817 6.97294 29.7018C6.74054 29.5155 6.54469 29.2837 6.32685 29.0659C6.38701 28.8716 6.44827 28.6736 6.51419 28.4596C6.39223 28.4178 6.30515 28.3879 6.19692 28.3505V27.8446C6.23867 27.8025 6.29169 27.7498 6.35295 27.6883C6.56721 27.6457 6.79219 27.6009 7.07018 27.5454C7.81021 27.9608 8.61947 28.4148 9.40675 28.8563C10.1962 28.556 10.708 27.8635 11.4807 27.627Z" fill="black"/>
</svg>
