<svg width="138" height="30" viewBox="0 0 138 30" fill="none" xmlns="http://www.w3.org/2000/svg">
<path d="M136.274 10.7537C137.349 11.6236 136.211 12.9996 135.262 12.3037C134.091 11.5604 131.434 11.2124 131.102 12.8572C130.675 15.4512 137.555 13.9645 137.444 18.1715C137.334 22.189 131.513 22.2838 129.331 20.4807C128.809 20.0538 128.824 19.3578 129.109 18.9307C129.52 18.5196 129.979 18.3772 130.517 18.82C131.814 19.7057 135.151 20.37 135.388 18.1241C135.183 15.7833 128.603 17.1909 129.093 12.6991C129.457 9.63074 134.091 9.07712 136.274 10.7537ZM125.898 11.3705V17.096C125.898 23.0113 116.361 23.0113 116.361 17.096V11.3705C116.361 9.94713 118.433 9.8838 118.433 11.3705V17.096C118.433 20.2118 123.826 20.4017 123.826 17.096V11.3705C123.826 9.96283 125.898 9.85214 125.898 11.3705ZM60.5902 9.9313C63.358 10.0735 66.2524 11.9873 66.2524 15.7359C66.2524 19.4843 63.358 21.4298 60.5902 21.4298C57.6642 21.5563 54.6274 19.6108 54.6274 15.7359C54.6274 11.845 57.6642 9.9313 60.5902 9.9313ZM74.5247 10.3266C78.5421 10.3266 79.3645 15.7042 76.0115 17.0486L78.115 19.6108C78.9375 20.8288 77.2926 21.9991 76.3436 20.7971L73.9554 17.3808H71.4722V20.2435C71.4722 21.6195 69.3686 21.667 69.3686 20.2752V11.2915C69.3686 10.7378 69.7957 10.3266 70.3176 10.3266H74.5247ZM41.7524 10.1844C42.2111 10.1844 42.48 10.4532 42.7489 10.7537L46.2284 15.4512L49.8346 10.5797C50.3565 9.93131 51.6376 10.1844 51.6376 11.2756V20.1803C51.6376 20.8761 51.1948 21.2716 50.6886 21.2716C50.1192 21.2716 49.6764 20.8761 49.6764 20.1803V14.3282L47.0509 17.6497C46.4814 18.3455 45.7698 18.3455 45.2478 17.6497L42.8912 14.3282V20.1803C42.8912 20.8761 42.3218 21.2716 41.7524 21.2716C41.2463 21.2716 40.8034 20.8761 40.8034 20.1803V11.2756C40.8034 10.4533 41.4993 10.1844 41.7524 10.1844ZM85.992 10.1844C88.0481 10.1844 89.8986 11.5604 89.8986 14.2017C89.8986 16.7006 88.0481 18.0925 85.992 18.0925H83.3506V20.1803C83.3506 20.8761 82.9078 21.2716 82.3384 21.2716C81.8165 21.2716 81.2629 20.8761 81.2629 20.1803V11.2756C81.2629 10.7537 81.6741 10.1844 82.3384 10.1844H85.992ZM101.097 10.3266C101.651 10.3266 102.078 10.7378 102.078 11.3073V20.291C102.078 20.8445 101.651 21.2716 101.097 21.2716C100.528 21.2716 100.022 20.8445 100.022 20.291V16.8272H94.8655V20.291C94.8655 20.8445 94.4542 21.2716 93.9006 21.2716C93.1889 21.2716 92.7777 20.8445 92.7777 20.291V11.3073C92.7777 10.7379 93.1889 10.3266 93.9006 10.3266C94.4542 10.3266 94.8655 10.7378 94.8655 11.3073V14.7553H100.022V11.3073C100.022 10.7379 100.528 10.3266 101.097 10.3266ZM112.106 10.3266C113.561 10.3266 113.529 12.3827 112.106 12.3827H107.551V14.7553H111.536C112.944 14.7553 112.944 16.8272 111.536 16.8272H107.551V19.1996H112.375C113.814 19.1996 113.925 21.2716 112.375 21.2716H106.428C105.874 21.2716 105.447 20.8445 105.447 20.291V11.3073C105.447 10.7379 105.874 10.3266 106.428 10.3266H112.106ZM60.4162 11.9873C58.6448 11.9873 56.7152 13.2369 56.7152 15.7359C56.7152 18.219 58.6448 19.4843 60.4162 19.4843C62.2351 19.4843 64.1805 18.219 64.1805 15.7359C64.1805 13.2369 62.2351 11.9873 60.4162 11.9873ZM85.992 12.1772H83.3506V16.1155H85.992C87.0516 16.1155 87.89 15.1823 87.89 14.2017C87.89 13.0946 87.0516 12.1772 85.992 12.1772ZM74.5248 12.2404H71.4722V15.5619H74.5248C76.5808 15.5619 76.7074 12.2404 74.5248 12.2404Z" fill="#3DB5E6"/>
<path d="M28.257 18.6299C26.715 24.8249 21.0732 29.2325 14.4283 29.2325C7.75342 29.2325 2.16013 24.5641 0.681335 18.3435C2.45951 18.3435 4.12185 18.3516 4.89359 18.3516C5.25765 18.3516 5.32835 18.3579 5.34942 18.3564C5.9301 18.3278 6.65823 18.1362 7.14263 16.9582L8.98851 12.1296L13.0879 21.9998C13.4565 22.7866 14.0718 22.7308 14.4389 22.7308H14.4735C15.1896 22.7308 15.501 22.4799 15.7733 21.9609L20.4037 12.2036L21.9833 16.601L22.0796 16.8139C22.4136 17.5466 22.6538 18.2702 23.4803 18.3648C23.6507 18.3843 25.6292 18.3497 28.2965 18.3497C28.2965 18.3497 28.2965 18.3668 28.257 18.6299Z" fill="#3DB5E6"/>
<path d="M28.7097 14.9811C28.7097 15.0549 28.7098 15.2403 28.7082 15.2403H28.7052H24.4479L21.9641 8.30196C21.743 7.78596 21.4105 7.01241 20.4417 7.01241C19.849 7.01241 19.3134 7.50193 19.0095 8.30978L14.5069 18.7392L10.1728 8.37304C9.74857 7.45236 9.45522 7.01936 8.60675 7.01936C8.03057 7.01936 7.60784 7.23161 7.1475 8.32228L4.57502 15.3433L0.301078 15.3388C0.298067 15.232 0.29657 15.1252 0.29657 15.0184C0.29657 7.21367 6.62398 0.906006 14.4287 0.906006C22.2334 0.906006 28.7097 7.17643 28.7097 14.9811Z" fill="#D8292F"/>
</svg>
