<svg width="138" height="29" viewBox="0 0 138 29" fill="none" xmlns="http://www.w3.org/2000/svg">
<path d="M25.4868 15.0697L25.5049 15.0712L27.4006 15.2693C27.5337 15.2837 27.6559 15.3486 27.7423 15.4502L27.7563 15.4674L27.7383 15.4764C27.8269 15.5882 27.866 15.7313 27.8464 15.8726C27.4322 19.1654 25.8715 22.2071 23.4383 24.4638C20.9135 26.8055 17.5972 28.1065 14.1536 28.1065C12.4811 28.1092 10.8229 27.8013 9.26318 27.1986L9.1782 27.1654C9.05054 27.1182 8.94797 27.0212 8.89367 26.8971L8.8855 26.8773C8.83233 26.7537 8.82938 26.6147 8.87664 26.4894L9.6249 24.6639C9.72628 24.4058 10.0136 24.2758 10.2731 24.3673L10.2904 24.3737C14.115 25.8505 18.4468 25.0188 21.4526 22.2305C23.3658 20.4725 24.5994 18.0975 24.9376 15.5214C24.9734 15.2554 25.2042 15.0619 25.4687 15.0689L25.4868 15.0697ZM70.2573 7.32205C71.8737 7.32205 73.1378 7.81521 73.9451 8.76233L73.9721 8.79442V7.99294C73.9829 7.76923 74.1561 7.58842 74.3773 7.56659L74.3953 7.56517H76.5521C76.774 7.58051 76.9505 7.75517 76.9697 7.97502L76.9709 7.99294V19.9656C77.0406 21.6539 76.5217 23.3139 75.503 24.662C74.3412 26.0758 72.5763 26.7917 70.2573 26.7917C67.0334 26.7917 64.4893 24.752 64.0706 21.8387C64.0498 21.6284 64.1779 21.4328 64.3771 21.3669L64.3948 21.3614L66.5021 20.8661C66.5131 20.8637 66.5241 20.8616 66.5352 20.86C66.7665 20.8261 66.9815 20.9861 67.0154 21.2174C67.2078 22.8515 68.6124 24.0707 70.2573 24.0315C72.7492 24.0315 73.9215 22.765 73.9447 20.1182L73.9451 20.0376V18.9885C73.011 20.0362 71.6602 20.6151 70.2573 20.569C66.6732 20.569 64.0752 17.7863 64.0752 13.959C64.0423 12.237 64.6487 10.5638 65.7771 9.26267C66.9233 8.00344 68.5548 7.29679 70.2573 7.32205ZM5.34691 21.8837L5.37363 21.8835L5.40045 21.8837C6.26079 21.8936 6.95349 22.5892 6.96284 23.4464L6.96291 23.4732C6.96291 23.4821 6.9628 23.4911 6.96265 23.5C6.94767 24.3777 6.22411 25.0771 5.34639 25.0622C4.46868 25.0472 3.7693 24.3237 3.78412 23.446C3.7988 22.5862 4.49343 21.8974 5.34691 21.8837ZM107.592 7.15546L107.702 7.15627C111.555 7.20948 113.942 9.89142 113.942 14.1841C113.942 14.4112 113.93 14.6382 113.906 14.864C113.887 15.0717 113.717 15.2319 113.51 15.2417L113.492 15.2422H104.334C104.39 17.1658 105.98 18.6877 107.905 18.6598C109.396 18.7535 110.755 17.8051 111.182 16.3725C111.261 16.1668 111.482 16.0562 111.692 16.1152L111.709 16.1203L113.537 16.7642C113.638 16.7967 113.721 16.8683 113.767 16.9624L113.776 16.9803C113.826 17.0795 113.834 17.1947 113.799 17.3C112.949 19.814 110.557 21.4775 107.905 21.3975C106.166 21.4148 104.492 20.7354 103.258 19.5108C101.91 18.0932 101.191 16.1925 101.263 14.2382C101.263 9.84739 104.419 7.2086 107.5 7.15626L107.592 7.15546ZM55.7676 7.15546H55.7721C59.694 7.15546 62.13 9.84806 62.13 14.1841C62.1297 14.4112 62.1176 14.6382 62.0939 14.864C62.0757 15.0728 61.9048 15.2341 61.6971 15.2419L61.6797 15.2422H52.5212C52.5777 17.1711 54.176 18.6952 56.1053 18.6598C57.5978 18.7552 58.9579 17.8062 59.3833 16.3725C59.4596 16.1652 59.683 16.0538 59.8931 16.115L59.9101 16.1203L61.7382 16.7642C61.8451 16.7987 61.932 16.8774 61.9768 16.9803C62.0196 17.0826 62.0196 17.1977 61.9768 17.3C61.1284 19.8124 58.738 21.4755 56.0873 21.3975C54.3454 21.4172 52.6683 20.7376 51.4315 19.5108C50.086 18.0921 49.3672 16.1922 49.4368 14.2382C49.4368 9.80304 52.6563 7.15546 55.7676 7.15546ZM41.8993 7.15091C43.6598 7.15091 45.0827 7.57868 46.1363 8.42063C46.8488 8.98842 47.3768 9.75462 47.6537 10.6225L47.6546 10.626C47.6908 10.7756 47.6028 10.9263 47.4569 10.9697L47.4421 10.9737L45.2583 11.6942C45.1614 11.7325 45.0535 11.7325 44.9567 11.6942C44.874 11.6555 44.8117 11.5834 44.7855 11.4961L44.7739 11.4531C44.575 10.742 43.9247 9.60039 41.8993 9.60039C40.4585 9.60039 39.5939 10.4289 39.5939 11.2304L39.5943 11.2621C39.6051 11.7833 39.8885 12.4375 41.1312 12.6862L41.1699 12.6937L43.5743 13.144C46.2311 13.6789 47.7625 15.1229 47.7928 17.1353L47.7933 17.1964L47.7843 17.1605L47.7838 17.2215C47.7451 19.2388 45.7939 21.3614 42.201 21.3614C37.991 21.3614 36.3385 18.9795 36.0323 17.5747C36.0123 17.4277 36.102 17.2889 36.2422 17.2457L36.2574 17.2415L38.5088 16.5391C38.549 16.5325 38.5901 16.5325 38.6304 16.5391C38.6876 16.538 38.7442 16.5502 38.7958 16.5744L38.8149 16.5841C38.8976 16.6237 38.9587 16.6979 38.9815 16.7867C39.2653 18.1375 40.4855 18.9435 42.2415 18.9435C43.876 18.9435 44.6189 18.088 44.6189 17.3135C44.6189 16.5476 43.9715 15.9798 42.8553 15.7453L42.8179 15.7376L40.2919 15.2468C37.9369 14.801 36.4691 13.3376 36.4691 11.433C36.4691 9.11408 38.959 7.15091 41.8993 7.15091ZM132.71 3.40019H134.678C134.91 3.41413 135.092 3.60243 135.101 3.83306L135.101 3.85044V7.54717H137.469C137.699 7.56336 137.879 7.75083 137.888 7.97973L137.888 7.99742V9.9606L137.888 9.97769C137.882 10.1978 137.706 10.3766 137.486 10.3878L137.469 10.3884H135.101V16.9578C135.101 18.0474 135.533 18.4977 136.645 18.4977C136.87 18.4938 137.095 18.4767 137.318 18.4466L137.402 18.4346C137.524 18.4139 137.65 18.4485 137.744 18.5293C137.829 18.6081 137.88 18.7165 137.887 18.8318L137.888 18.8535V20.704C137.89 20.8926 137.767 21.0597 137.586 21.1138C137.068 21.259 136.532 21.3318 135.994 21.3306L135.92 21.3299C133.571 21.3299 132.105 19.8338 132.076 17.4141L132.075 17.3405V10.4154H130.026C129.803 10.4022 129.624 10.227 129.604 10.0057L129.603 9.98762V8.01541C129.602 7.78275 129.779 7.58911 130.009 7.56654L130.026 7.56517L130.577 7.5651L130.636 7.56405C131.279 7.54558 132.266 7.28499 132.286 5.84979L132.287 5.80457V3.85044C132.286 3.61777 132.463 3.42414 132.693 3.40156L132.71 3.40019ZM94.4662 7.15346L94.5178 7.15546H94.5131C96.8313 7.15546 99.1714 8.77059 99.218 12.298L99.2187 12.4055V20.7446C99.2082 20.9683 99.0344 21.149 98.8135 21.1709L98.7955 21.1723H96.6385C96.4152 21.1591 96.2365 20.9839 96.2165 20.7626L96.2153 20.7446V12.6757L96.2149 12.6136C96.2018 11.5855 95.8523 9.93356 93.7347 9.93356C92.1696 9.93356 91.0549 11.1516 91.0328 12.9235L91.0324 12.9774V20.7446C91.0219 20.9683 90.8488 21.149 90.6273 21.1709L90.6092 21.1723H88.4259C88.2018 21.1591 88.0232 20.9839 88.0039 20.7626L88.0027 20.7446V12.6757L88.0023 12.6136C87.9892 11.5855 87.6398 9.93356 85.5213 9.93356C83.8943 9.93356 82.7926 11.1427 82.7708 12.9495L82.7704 13.0044V20.7446C82.7592 20.9683 82.5861 21.149 82.3652 21.1709L82.3472 21.1723H80.1902C79.9684 21.157 79.7919 20.9823 79.7728 20.7625L79.7716 20.7446V7.96591C79.7822 7.74378 79.953 7.5636 80.1723 7.53973L80.1902 7.53814H82.2661C82.4895 7.5513 82.6689 7.72656 82.6881 7.94787L82.6893 7.96591V8.73589C83.623 7.71213 84.9506 7.13693 86.3361 7.15546C87.9409 7.10843 89.4384 7.95687 90.2223 9.35719C91.1558 7.93081 92.7653 7.09635 94.4662 7.15346ZM126.762 8.74484C127.588 9.83343 128.014 11.1723 127.97 12.537L127.968 12.5946V20.7446C127.958 20.9667 127.787 21.1469 127.567 21.1708L127.55 21.1723H125.366C125.142 21.1591 124.963 20.9839 124.944 20.7626L124.942 20.7446V13.0315C124.942 11.0142 123.992 9.98762 122.191 9.98762C121.396 9.9619 120.635 10.3163 120.142 10.9422C119.666 11.6292 119.42 12.4491 119.439 13.284L119.44 13.3331V20.7446C119.429 20.9683 119.256 21.149 119.035 21.1709L119.017 21.1723H116.838C116.614 21.1591 116.435 20.9839 116.416 20.7626L116.415 20.7446V7.95687C116.425 7.73316 116.599 7.55243 116.82 7.53053L116.838 7.5291H118.968C119.19 7.54444 119.366 7.71918 119.385 7.93896L119.386 7.95687V8.85744C120.3 7.75059 121.671 7.12341 123.106 7.15546C124.504 7.09569 125.852 7.68178 126.762 8.74484ZM1.26243 15.616H16.7653C17.0501 15.6184 17.2803 15.8465 17.2875 16.1292L17.2876 16.1473V18.088C17.29 18.3729 17.0658 18.6069 16.7833 18.6188L16.7652 18.6193H1.26243C0.977496 18.6169 0.747426 18.3887 0.740112 18.1061V18.088V16.1473V16.1292C0.747273 15.8527 0.967671 15.6284 1.24393 15.6165L1.26243 15.616ZM70.6311 10.0146C68.5058 10.0146 67.155 11.5276 67.155 13.959C67.155 16.3905 68.4877 17.8988 70.6311 17.8988C72.6753 17.8988 74.0531 16.3139 74.0531 13.959C74.0531 11.5995 72.6753 10.0146 70.6311 10.0146ZM52.617 12.6454L52.6112 12.6937H59.0186C58.8626 10.982 57.6562 9.91459 55.8496 9.89341L55.7946 9.89309C54.2027 9.8672 52.847 11.0316 52.6235 12.5978L52.617 12.6454ZM104.448 12.6454L104.442 12.6937H110.849C110.693 10.982 109.487 9.91459 107.68 9.89341L107.625 9.89309C106.033 9.8672 104.677 11.0316 104.454 12.5978L104.448 12.6454ZM18.7059 0.8066C18.8401 0.855023 18.9489 0.95573 19.0076 1.08578C19.0614 1.21707 19.0614 1.36427 19.0076 1.49549L18.3322 3.29663C18.2386 3.56369 17.9466 3.70463 17.6793 3.6118C14.141 2.37706 10.2148 3.07861 7.32308 5.46237C5.52093 6.97081 4.24132 9.01005 3.66689 11.2889C3.60742 11.519 3.40022 11.6799 3.16258 11.6806H3.0455L1.19038 11.2349C1.05206 11.2024 0.933282 11.1144 0.861691 10.9917H0.852655C0.777588 10.869 0.756427 10.7208 0.794192 10.582C1.53088 7.66487 3.17926 5.059 5.49946 3.14348C9.18886 0.106131 14.1983 -0.780307 18.7059 0.8066ZM11.8393 8.5873H27.3421C27.6199 8.58956 27.847 8.8069 27.8636 9.08213L27.8644 9.10056V11.0413C27.8668 11.3262 27.6427 11.5602 27.3602 11.5721L27.3421 11.5726H11.8393C11.5562 11.5678 11.3288 11.3405 11.3216 11.0596L11.3214 11.0413V9.11856C11.319 8.83549 11.5403 8.60235 11.8209 8.58792L11.8393 8.5873ZM22.6012 2.66618L22.628 2.66597L22.6548 2.6662C23.5151 2.67606 24.2078 3.37172 24.2172 4.22882L24.2172 4.25566C24.2172 4.26462 24.2171 4.27358 24.217 4.28246C24.2021 5.16017 23.4784 5.85956 22.6007 5.84465C21.723 5.82975 21.0236 5.10611 21.0385 4.22848C21.0531 3.3686 21.7478 2.67992 22.6012 2.66618Z" fill="#4FB58B"/>
</svg>
