<svg width="138" height="22" viewBox="0 0 138 22" fill="none" xmlns="http://www.w3.org/2000/svg">
<path d="M130.658 9.79236V12.6518H132.668V15.4889C132.673 15.7062 132.664 15.9381 132.634 16.1377L132.617 16.2346C132.613 16.2562 132.609 16.2784 132.605 16.3012L132.588 16.371C132.585 16.3828 132.582 16.3948 132.579 16.4069L132.555 16.4805C132.374 17.0029 131.83 17.6649 130.608 17.6649C129.306 17.6649 128.783 16.9049 128.64 16.371L128.623 16.3012L128.61 16.2346C128.574 16.0158 128.559 15.7424 128.559 15.4889V6.52805C128.559 6.24631 128.576 5.94089 128.627 5.69208L128.661 5.54088C128.664 5.53041 128.667 5.51976 128.669 5.50896L128.688 5.44237C128.692 5.43099 128.696 5.41948 128.699 5.40784L128.724 5.33666C128.91 4.84156 129.402 4.18217 130.597 4.18217C131.52 4.18217 132.017 4.55819 132.282 4.94683L132.329 5.01976C132.344 5.04405 132.358 5.06832 132.371 5.09245L132.409 5.16437L132.441 5.23499L132.47 5.30378L132.494 5.3702L132.515 5.43373L132.532 5.49382L132.546 5.54995L132.557 5.60158C132.562 5.62726 132.567 5.65452 132.571 5.68286L132.583 5.77064C132.585 5.78564 132.586 5.80079 132.588 5.81602L132.6 5.95365L132.608 6.08565L132.615 6.26563L132.617 6.35787V7.44597H137.554L137.555 6.76862L137.559 6.52638L137.558 6.3386L137.553 6.11995L137.549 6.00224L137.541 5.81877L137.528 5.63082L137.517 5.50516C137.183 2.19501 134.695 0.921454 131.668 0.699845L131.465 0.686618L131.261 0.676444C131.158 0.672109 131.056 0.668894 130.952 0.666763L130.745 0.663936C130.71 0.663585 130.675 0.663585 130.641 0.663585L130.432 0.665005C130.398 0.66548 130.363 0.666075 130.329 0.666792L130.123 0.672558L129.918 0.681302L129.715 0.693085L129.513 0.707972C129.446 0.713459 129.38 0.719473 129.313 0.726026L129.116 0.74731C129.083 0.75113 129.05 0.755087 129.017 0.759183L128.822 0.78543C128.37 0.850602 127.935 0.943444 127.522 1.06757L127.347 1.1227C125.434 1.75037 124.044 3.08486 123.758 5.50516L123.729 5.77382L123.708 5.98184L123.69 6.19992L123.674 6.41689C123.665 6.55867 123.659 6.69226 123.659 6.80272L123.66 15.1515L123.661 15.2552L123.666 15.4127L123.67 15.5231L123.677 15.641L123.686 15.7692L123.697 15.9105L123.719 16.1529L123.737 16.3388C124.015 19.4148 126.346 20.7832 129.199 21.106L129.399 21.1269C129.733 21.1588 130.074 21.1768 130.419 21.1819L130.627 21.1834L130.836 21.1819C131.183 21.1768 131.525 21.1588 131.861 21.1269L132.061 21.106C134.924 20.7832 137.24 19.4148 137.522 16.3388L137.545 16.0676L137.561 15.8381L137.577 15.5809L137.586 15.3594L137.594 15.0458V9.79236H130.658ZM96.6117 1.19102H91.653V15.6956C91.6608 15.9484 91.653 16.2323 91.6095 16.4406L91.5949 16.5037L91.5768 16.5709C91.5702 16.5939 91.5629 16.6175 91.5549 16.6415L91.529 16.7151C91.3419 17.2138 90.8654 17.8645 89.7253 17.8645C88.6562 17.8645 88.1681 17.2772 87.9637 16.7909L87.9337 16.7151C87.9291 16.7026 87.9246 16.6903 87.9204 16.678L87.897 16.6058L87.8777 16.5368C87.8748 16.5256 87.8721 16.5145 87.8695 16.5037L87.8558 16.4406C87.8062 16.2323 87.7999 15.9484 87.8062 15.6956V1.19102H82.849V15.2455L82.8482 15.3584L82.8499 15.556L82.8568 15.8467L82.8704 16.2L82.8799 16.3779L82.8863 16.4723L82.8926 16.5418C83.1355 19.142 84.661 20.4955 86.8153 21.0618L86.9989 21.1078C87.3997 21.2035 87.821 21.2732 88.2588 21.3197L88.462 21.3396L88.6674 21.3562L88.875 21.3697C88.9794 21.3756 89.0845 21.3804 89.1903 21.3841L89.4029 21.3899L89.6174 21.3928C89.6533 21.3932 89.6893 21.3932 89.7253 21.3932L89.9411 21.3917C89.9769 21.3912 90.0127 21.3906 90.0483 21.3899L90.2613 21.3841C90.3674 21.3804 90.4726 21.3756 90.5771 21.3697L90.7851 21.3562L90.9909 21.3396L91.1944 21.3197C94.0945 21.0117 96.27 19.6914 96.5696 16.5418L96.5736 16.5105L96.5817 16.4279L96.5937 16.2634L96.6044 16.0642L96.6103 15.9203L96.6164 15.6995L96.6181 15.556L96.6175 15.4212L96.6144 15.2997C96.6136 15.2808 96.6127 15.2627 96.6117 15.2455V1.19102ZM51.0509 1.19102L48.5774 16.5171L46.1053 1.19102H38.1067L37.6825 20.7975H42.5827L42.7154 2.64719L46.087 20.7975H51.0587L54.4333 2.64719L54.5665 20.7975H59.479L59.0405 1.19102H51.0509ZM21.4363 1.19102L17.8044 20.7975H23.1006L25.8375 2.64719L28.5087 20.7975H33.7682L30.1514 1.19102H21.4363ZM113.941 16.9765L109.324 1.19102H102.048V20.5931H106.861L106.582 4.30251L111.54 20.5931H118.518V1.19102H113.674L113.941 16.9765ZM69.4207 6.29367C69.3336 5.90646 69.3588 5.49509 69.4039 5.28009C69.4166 5.22303 69.4317 5.1655 69.4495 5.10806L69.4782 5.02203C69.6738 4.47849 70.1315 3.96792 71.1808 3.96792C72.3132 3.96792 72.9771 4.67385 72.9771 5.73325V6.93213H77.8108V5.56558C77.8108 2.48169 75.7925 1.29538 73.6359 0.879595L73.4583 0.847133L73.2804 0.818002L73.1023 0.792062L72.9243 0.769176L72.7466 0.749203L72.5694 0.732006C72.5105 0.72672 72.4517 0.721874 72.393 0.717443L72.2176 0.705378L72.0435 0.69567L71.8708 0.688181L71.6998 0.682771L71.5307 0.679302L71.2812 0.677432L71.1712 0.677819L70.9526 0.68094C70.9163 0.681723 70.88 0.682638 70.8439 0.683686L70.6281 0.691581C70.5564 0.694752 70.4852 0.698464 70.4142 0.702726L70.2025 0.71717C67.2536 0.942746 64.9523 2.15405 64.492 4.99459C64.3558 5.85963 64.3221 6.6275 64.5389 7.60734C64.8801 9.21749 66.2214 10.3633 67.7611 11.3243L67.9995 11.4707C68.0394 11.4949 68.0795 11.519 68.1196 11.5429L68.3614 11.6854L68.6047 11.8255L68.8489 11.9636L69.2154 12.1671L70.1783 12.6948L70.4122 12.8245L70.6422 12.9538L70.8675 13.0829L71.0875 13.212C72.1369 13.8365 72.9777 14.4699 73.2802 15.2271C73.4476 15.6769 73.411 16.244 73.3301 16.6058L73.3162 16.6641C73.2962 16.7511 73.271 16.8381 73.2394 16.9237L73.2056 17.0087C72.9829 17.529 72.4961 17.9725 71.4265 17.9725C70.2065 17.9725 69.4721 17.2711 69.4721 16.214L69.4706 14.3323H64.2677V15.828C64.2677 19.3386 66.495 20.8635 69.2845 21.3163L69.4921 21.3479C69.6312 21.3676 69.7715 21.3849 69.9129 21.3996L70.1258 21.4199C70.3751 21.4415 70.6273 21.4558 70.8814 21.4633L71.0997 21.4681C71.1361 21.4686 71.1726 21.469 71.2091 21.4693L71.3187 21.4697C71.3917 21.4697 71.4644 21.4692 71.5368 21.4681L71.7531 21.4634C71.7891 21.4623 71.8249 21.4612 71.8607 21.4598L72.0743 21.4503C72.1452 21.4465 72.2158 21.4423 72.286 21.4374L72.4957 21.4213C72.6348 21.4094 72.7725 21.3952 72.9086 21.3788L73.1116 21.3524L73.3122 21.3225C73.3786 21.3119 73.4446 21.3008 73.5102 21.289L73.7056 21.2519C76.0669 20.7788 77.8238 19.496 78.1766 17.0294C78.2252 16.6615 78.2551 16.3218 78.2712 16.0112L78.2799 15.8085C78.2811 15.7755 78.2821 15.7428 78.2829 15.7104L78.2861 15.5208V15.34L78.2831 15.1681L78.2775 15.0051L78.2696 14.8511C78.2681 14.8262 78.2665 14.8017 78.2649 14.7775L78.2541 14.6372L78.2419 14.5061L78.2286 14.3842L78.207 14.2188L78.1847 14.0746L78.1557 13.9157L78.1422 13.8507C77.8017 12.1433 76.3069 10.9374 74.6463 9.94469L74.4081 9.8043L74.1682 9.66662L73.9274 9.53148L73.5657 9.33309L73.086 9.07568L72.2679 8.64056L71.9313 8.45843C71.8945 8.4383 71.8579 8.4182 71.8215 8.39813L71.6061 8.278L71.3968 8.15835C70.3665 7.56096 69.5877 6.9744 69.4207 6.29367ZM5.65702 6.24558C5.56804 5.87502 5.58195 5.48522 5.6276 5.25871L5.6465 5.1739L5.66795 5.08998C5.83124 4.50124 6.27771 3.89441 7.43167 3.89441C8.57843 3.89441 9.25365 4.60713 9.25365 5.6751V6.88857H14.1441V5.5112C14.1441 2.56832 12.3133 1.3324 10.2675 0.848937L10.0891 0.80877C9.9401 0.77684 9.79017 0.748715 9.63997 0.724033L9.45964 0.696044L9.2793 0.67122L9.09916 0.649423L8.91948 0.630512C8.85969 0.624674 8.80001 0.619294 8.74048 0.614348L8.56241 0.600792L8.3855 0.589704L8.20998 0.580945L8.03609 0.574375L7.86408 0.569855L7.61007 0.566406H7.52659C7.45327 0.566406 7.38023 0.566919 7.3075 0.567952L7.09019 0.572621C6.94594 0.576787 6.80295 0.583068 6.66133 0.591532L6.44997 0.605873C6.41491 0.608538 6.37995 0.611343 6.34509 0.614286L6.137 0.633631C6.06802 0.640642 5.99942 0.64822 5.93123 0.656373L5.72785 0.682563C5.5594 0.705839 5.39355 0.732758 5.23055 0.76345L5.03633 0.802099L4.84494 0.844421L4.65647 0.890464C4.59414 0.906438 4.53232 0.92304 4.47101 0.940279L4.28867 0.993915C2.39075 1.57733 1.023 2.80092 0.677739 4.9241C0.535244 5.80299 0.510823 6.57614 0.716762 7.56681C1.07933 9.27878 2.55804 10.471 4.21238 11.4728L4.45562 11.6181C4.49633 11.6421 4.53712 11.6659 4.57798 11.6897L4.82375 11.8314L5.19384 12.0399L5.68651 12.3117L6.41322 12.7099L6.76624 12.9064L7.10943 13.1022L7.33166 13.2328C7.36822 13.2545 7.40453 13.2763 7.44057 13.2981L7.65355 13.4291C8.56179 13.998 9.27313 14.5839 9.54771 15.2709C9.72754 15.7176 9.68549 16.2845 9.6005 16.6581L9.58597 16.7185C9.56499 16.8045 9.53922 16.8905 9.50735 16.9752L9.47341 17.0594C9.24495 17.5889 8.75464 18.043 7.6711 18.043C6.44629 18.043 5.71367 17.3295 5.71367 16.2578L5.70687 14.3711H0.445618V15.8703C0.445618 20.0786 3.6185 21.4618 7.13236 21.5657L7.35239 21.5706L7.57316 21.5722L7.79146 21.5706C7.90019 21.5691 8.00828 21.5663 8.11567 21.5624L8.32952 21.553C8.43596 21.5474 8.54168 21.5407 8.64661 21.5327L8.85541 21.5151L9.06203 21.4941C9.13052 21.4865 9.19864 21.4784 9.26636 21.4697L9.46833 21.4419C9.53524 21.4321 9.60175 21.4216 9.66782 21.4106L9.86476 21.3757C12.31 20.9179 14.1324 19.6208 14.4993 17.0838C14.5498 16.7214 14.5814 16.3861 14.5991 16.0788L14.6088 15.8781L14.6148 15.6858C14.6162 15.6231 14.617 15.5618 14.6173 15.5019L14.6167 15.3265L14.6132 15.1596L14.6073 15.0014L14.5992 14.8518L14.5893 14.7109L14.5779 14.5788L14.5588 14.3973L14.5382 14.2359L14.5103 14.0523L14.4787 13.8744C14.1394 12.1872 12.6892 10.9869 11.0576 9.99971L10.8177 9.85673C10.7775 9.83314 10.7373 9.80967 10.697 9.78632L10.4543 9.64754L10.2107 9.51133L9.96682 9.37749L9.72323 9.24584L8.64841 8.67531L8.3047 8.4911L8.08149 8.3694L7.86379 8.24835L7.65224 8.12778C7.61753 8.10771 7.5831 8.08765 7.54897 8.0676L7.34785 7.94737C6.45982 7.40644 5.80773 6.86524 5.65702 6.24558Z" fill="#1428A0"/>
</svg>
