<svg width="138" height="26" viewBox="0 0 138 26" fill="none" xmlns="http://www.w3.org/2000/svg">
<path d="M3.43714 20.3182C2.40844 20.3204 1.45811 19.7689 0.949622 18.8747C0.448469 17.9859 0.478521 16.8932 1.02776 16.0334L6.15041 7.98907C6.68419 7.1089 7.65025 6.58399 8.67917 6.61508C9.70734 6.63972 10.6425 7.21619 11.1265 8.12365C11.6041 9.02663 11.5444 10.113 10.9724 10.9606L5.85303 19.0049C5.3254 19.8271 4.41406 20.3225 3.43714 20.3182Z" fill="#F62B54"/>
<path d="M12.224 20.3178C11.1907 20.3178 10.24 19.7654 9.74078 18.8776C9.24074 17.9913 9.2708 16.9013 9.81892 16.0439L14.9318 8.01802C15.4579 7.12521 16.4268 6.58798 17.4627 6.61472C18.5046 6.63751 19.4488 7.22032 19.9264 8.13198C20.4007 9.04364 20.3312 10.1365 19.7419 10.982L14.6301 19.0078C14.1041 19.8265 13.197 20.3203 12.224 20.3178Z" fill="#FFCC00"/>
<path d="M20.814 20.3861C22.2706 20.3861 23.4513 19.2301 23.4513 17.8041C23.4513 16.3781 22.2706 15.2222 20.814 15.2222C19.3575 15.2222 18.1768 16.3781 18.1768 17.8041C18.1768 19.2301 19.3575 20.3861 20.814 20.3861Z" fill="#00CA72"/>
<path d="M135.385 15.3707C136.182 15.3707 136.658 15.9373 136.658 16.8652V20.0451H137.74V16.7925C137.74 15.2144 136.997 14.2995 135.599 14.2995C135.052 14.2995 134.184 14.4493 133.666 15.4554C133.421 14.8508 132.863 14.4297 132.215 14.3592C132.014 14.3225 131.81 14.3105 131.607 14.3234C131.162 14.3592 130.37 14.636 130.074 15.2633V14.42H128.99V20.0451H130.074V17.0095C130.074 15.8287 130.846 15.3707 131.62 15.3707C132.345 15.3707 132.822 15.9253 132.822 16.8533V20.0451H133.898V17.0095C133.898 16.0697 134.462 15.3599 135.385 15.3707ZM125.015 19.1053C125.51 19.1161 125.987 18.9186 126.334 18.5604C126.681 18.2023 126.865 17.715 126.847 17.2147C126.847 16.0816 126.013 15.3707 125.015 15.3707C124.015 15.3707 123.183 16.0816 123.183 17.2147C123.163 17.7139 123.348 18.2001 123.693 18.5572C124.038 18.9153 124.513 19.1139 125.006 19.1053H125.015ZM125.015 20.1602C123.433 20.1602 122.112 18.9913 122.112 17.2081C122.112 15.425 123.433 14.293 125.015 14.293C126.597 14.293 127.929 15.425 127.929 17.2081C127.929 18.9913 126.59 20.1656 125.007 20.1656L125.015 20.1602ZM116.539 17.2081L116.528 17.2147C116.528 15.4315 117.883 14.2995 119.477 14.293C120.286 14.2774 121.064 14.6055 121.618 15.196L120.797 15.8949C120.445 15.5493 119.97 15.3586 119.477 15.3653C118.478 15.3653 117.61 16.0762 117.61 17.2081C117.61 17.9733 118.065 18.6625 118.762 18.9555C119.46 19.2485 120.263 19.0857 120.797 18.5452L121.63 19.2442C121.074 19.8408 120.292 20.1737 119.477 20.1602C117.895 20.1602 116.539 18.9913 116.539 17.2081ZM113.073 18.9653C113.071 18.7666 113.148 18.5752 113.286 18.4332C113.425 18.2911 113.615 18.21 113.813 18.2077C114.012 18.21 114.202 18.2911 114.34 18.4332C114.479 18.5752 114.556 18.7666 114.554 18.9653C114.534 19.3606 114.209 19.6721 113.813 19.6761C113.418 19.6721 113.093 19.3606 113.073 18.9653Z" fill="#333333"/>
<path d="M116.034 7.26952H112.18L109.479 14.2339L106.792 7.26952H102.938L107.623 18.2745L104.709 25.5504H108.535L116.034 7.26952ZM92.596 13.3906C92.596 15.1488 94.1328 16.3058 95.6425 16.3058C97.1261 16.3058 98.5837 15.2292 98.5837 13.3896C98.5837 11.55 97.1261 10.4723 95.6425 10.4723C94.1328 10.4723 92.596 11.6303 92.596 13.3896V13.3906ZM98.5837 19.5356V18.1432C97.8022 19.3262 95.9789 19.7733 95.0434 19.7733C91.9459 19.7733 88.8474 17.3314 88.8474 13.3896C88.8474 9.44881 91.9449 7.00688 95.0434 7.00688C95.8237 7.00688 97.647 7.26735 98.5837 8.63483V7.27386H102.176V19.5378L98.5837 19.5367V19.5356ZM87.825 19.5356H84.2327V18.0119C83.6325 19.1406 82.1771 19.7983 80.6664 19.7983C77.5418 19.7983 74.7818 17.3032 74.7818 13.4395C74.7818 9.50308 77.5418 7.0047 80.6664 7.0047C82.1749 7.0047 83.6347 7.63418 84.2327 8.76399V0.588379H87.825V19.5356ZM84.1545 13.3624C84.1545 11.5239 82.8272 10.4462 81.3436 10.4462C79.8068 10.4462 78.5305 11.6021 78.5305 13.3624C78.5305 15.1792 79.8068 16.3297 81.3425 16.3297C82.8543 16.3318 84.1545 15.1228 84.1545 13.3624ZM65.8997 13.0455C65.8997 11.181 66.8634 10.5504 68.1387 10.5504C69.3618 10.5504 70.2474 11.3644 70.2474 12.9923V19.5335H73.8658V12.2055C73.8658 8.71298 72.1467 7.0047 69.4128 7.0047C67.9813 7.0047 66.5498 7.81868 65.8986 9.05376V7.26952H62.2824V19.5335H65.8997V13.0455ZM54.9349 19.744C51.4988 19.744 48.6325 17.2229 48.6325 13.3613C48.6325 9.49765 51.4955 7.00145 54.9349 7.00145C58.3742 7.00145 61.2622 9.49765 61.2622 13.3613C61.2622 17.225 58.3709 19.7451 54.9349 19.7451V19.744ZM54.9349 16.1734C56.4434 16.1734 57.6948 15.0685 57.6948 13.3624C57.6948 11.7073 56.4445 10.5775 54.9349 10.5775C54.2002 10.566 53.4932 10.8568 52.9791 11.3817C52.4622 11.9094 52.1815 12.6241 52.201 13.3624C52.202 15.0707 53.4512 16.1734 54.9349 16.1734ZM42.1456 10.5515C43.2125 10.5515 44.1502 11.3926 44.1502 12.9934V19.5356H47.7425V12.5702C47.7425 8.86709 45.942 7.00253 43.0562 7.00253C42.1988 7.00253 40.5839 7.26301 39.4117 9.18183C38.7345 7.76333 37.4332 7.0275 35.51 7.0275C34.1463 7.02056 32.9045 7.81165 32.3344 9.05051V7.2706H28.7139V19.5346H32.3312V13.0455C32.3312 11.181 33.347 10.5504 34.4399 10.5504C35.4818 10.5504 36.4174 11.3644 36.4445 12.9142V19.5346H40.0629V13.0455C40.0629 11.2624 41.0006 10.5526 42.1456 10.5526V10.5515Z" fill="#333333"/>
</svg>
