<svg width="139" height="33" viewBox="0 0 139 33" fill="none" xmlns="http://www.w3.org/2000/svg">
<path d="M1.1874 24.3274C1.02293 24.2324 0.888184 23.9995 0.888184 23.8105V8.32749C0.888184 8.1381 1.02293 7.90557 1.1874 7.81035L14.7682 0.0712809C14.9328 -0.0237603 15.2021 -0.0237603 15.3668 0.0712809L28.9467 7.81121C29.1113 7.90625 29.2459 8.13879 29.2459 8.32818V23.8111C29.2459 24 29.1113 24.2327 28.9467 24.3281L15.3668 32.0674C15.2021 32.1624 14.9328 32.1624 14.7682 32.0674L1.1874 24.3274ZM42.0022 9.86843V16.1484H44.6876C46.6365 16.1484 47.5027 15.3544 47.5027 14.0551V11.9617C47.5027 10.6626 46.6365 9.86843 44.6876 9.86843H42.0022ZM42.0022 18.1454V23.7517C42.0022 24.0884 41.9156 24.2327 41.6124 24.2327H40.2913C40.0098 24.2327 39.9015 24.0884 39.9015 23.7517V8.35276C39.9015 8.0159 40.0098 7.87137 40.2913 7.87137H44.6876C48.4124 7.87137 49.6034 9.60376 49.6034 11.5768V14.4402C49.6034 16.413 48.4124 18.1454 44.6876 18.1454H42.0022ZM54.4906 9.86843V15.7634H57.1758C59.1249 15.7634 59.9913 14.9934 59.9913 13.6701V11.9617C59.9913 10.6626 59.1249 9.86843 57.1758 9.86843H54.4906ZM54.4906 17.7605V23.7517C54.4906 24.0884 54.4038 24.2327 54.1006 24.2327H52.7797C52.4982 24.2327 52.3899 24.0884 52.3899 23.7517V8.35276C52.3899 8.0159 52.4982 7.87137 52.7797 7.87137H57.1758C60.9008 7.87137 62.0918 9.60376 62.0918 11.5768V14.0791C62.0918 15.5468 61.4205 16.8702 59.558 17.4478L62.1568 23.7517C62.2651 24.0404 62.0702 24.2327 61.767 24.2327H60.4675C60.1644 24.2327 60.121 24.0404 59.9913 23.7517L57.5439 17.7605H54.4906ZM73.4763 11.7693C73.4763 10.47 72.5622 9.67595 70.5049 9.67595C68.4706 9.67595 67.5564 10.47 67.5564 11.7693V20.3348C67.5564 21.6343 68.4706 22.4281 70.5049 22.4281C72.5622 22.4281 73.4763 21.6343 73.4763 20.3348V11.7693ZM65.3163 11.3843C65.3163 9.41127 66.5964 7.67905 70.5049 7.67905C74.4364 7.67905 75.7166 9.41127 75.7166 11.3843V20.72C75.7166 22.693 74.4364 24.4254 70.5049 24.4254C66.5964 24.4254 65.3163 22.693 65.3163 20.72V11.3843ZM87.7853 7.87137C88.0824 7.87137 88.2196 7.99184 88.2196 8.32853V9.41127C88.2196 9.74813 88.0824 9.86843 87.7853 9.86843H84.1282V23.7517C84.1282 24.0884 84.0139 24.2327 83.7165 24.2327H82.2995C82.0024 24.2327 81.8881 24.0884 81.8881 23.7517V9.86843H78.2308C77.9109 9.86843 77.7967 9.74813 77.7967 9.41127V8.32853C77.7967 7.99184 77.9109 7.87137 78.2308 7.87137H87.7853ZM98.4374 11.7693C98.4374 10.47 97.5231 9.67595 95.4661 9.67595C93.4317 9.67595 92.5174 10.47 92.5174 11.7693V20.3348C92.5174 21.6343 93.4317 22.4281 95.4661 22.4281C97.5231 22.4281 98.4374 21.6343 98.4374 20.3348V11.7693ZM90.2773 11.3843C90.2773 9.41127 91.5574 7.67905 95.4661 7.67905C99.3975 7.67905 100.678 9.41127 100.678 11.3843V20.72C100.678 22.693 99.3975 24.4254 95.4661 24.4254C91.5574 24.4254 90.2773 22.693 90.2773 20.72V11.3843ZM113.908 23.7756C113.908 24.0884 113.822 24.2327 113.518 24.2327H112.327C112.111 24.2327 112.024 24.1605 111.938 24.0162L106.848 14.1034C106.372 13.2129 106.112 12.467 106.069 12.3708V23.7756C106.069 24.0884 105.96 24.2327 105.679 24.2327H104.466C104.185 24.2327 104.076 24.0884 104.076 23.7756V8.32853C104.076 8.0159 104.185 7.87137 104.466 7.87137H105.679C105.852 7.87137 105.96 7.94355 106.025 8.06385L111.244 18.1936C111.548 18.771 111.916 19.7333 111.916 19.7333V8.32853C111.916 8.0159 112.046 7.87137 112.327 7.87137H113.518C113.822 7.87137 113.908 8.0159 113.908 8.32853V23.7756ZM117.632 24.2327C117.351 24.2327 117.243 24.0884 117.243 23.7517V8.35276C117.243 8.0159 117.351 7.87137 117.632 7.87137H125.039C125.32 7.87137 125.45 7.99184 125.45 8.32853V9.41127C125.45 9.74813 125.32 9.86843 125.039 9.86843H119.343V14.7288H124.649C124.952 14.7288 125.082 14.8491 125.082 15.1859V16.2206C125.082 16.5334 124.952 16.6777 124.649 16.6777H119.343V22.2358H125.277C125.558 22.2358 125.688 22.3321 125.688 22.6688V23.7756C125.688 24.1126 125.558 24.2327 125.277 24.2327H117.632ZM137.625 7.87137C137.906 7.87137 138.036 7.99184 138.036 8.32853V9.41127C138.036 9.74813 137.906 9.86843 137.625 9.86843H134.16V23.7517C134.16 24.0884 134.051 24.2327 133.77 24.2327H132.427C132.146 24.2327 132.038 24.0884 132.038 23.7517V9.86843H128.573C128.269 9.86843 128.161 9.74813 128.161 9.41127V8.32853C128.161 7.99184 128.269 7.87137 128.573 7.87137H137.625Z" fill="#E15B29"/>
</svg>
