<svg width="138" height="18" viewBox="0 0 138 18" fill="none" xmlns="http://www.w3.org/2000/svg">
<path d="M59.3563 11.7542H68.4188L63.6269 4.04474L54.8321 17.9838H50.8294L61.5268 1.24002C61.9919 0.563504 62.7671 0.154785 63.6269 0.154785C64.4584 0.154785 65.2336 0.549418 65.6846 1.21184L76.4243 17.9838H72.4216L70.533 14.869H61.3577L59.3563 11.7542ZM100.934 14.869V0.323914H97.5372V16.2925C97.5372 16.7294 97.7064 17.1522 98.0305 17.4764C98.3546 17.8006 98.7916 17.9838 99.2708 17.9838H114.76L116.762 14.869H100.934ZM44.7408 12.2616C48.0388 12.2616 50.7167 9.59782 50.7167 6.2998C50.7167 3.00179 48.0388 0.323914 44.7408 0.323914H29.8813V17.9838H33.2767V3.43871H44.5153C46.0939 3.43871 47.3623 4.72126 47.3623 6.2998C47.3623 7.87834 46.0939 9.16091 44.5153 9.16091L34.9398 9.14681L45.079 17.9838H50.012L43.1905 12.2616H44.7408ZM8.9799 17.9838C4.1047 17.9838 0.148468 14.0375 0.148468 9.16091C0.148468 4.28435 4.1047 0.323914 8.9799 0.323914H19.2445C24.1211 0.323914 28.0745 4.28435 28.0745 9.16091C28.0745 14.0375 24.1211 17.9838 19.2445 17.9838H8.9799ZM19.0162 14.869C22.1748 14.869 24.7328 12.318 24.7328 9.16091C24.7328 6.00383 22.1748 3.43871 19.0162 3.43871H9.20677C6.04969 3.43871 3.49015 6.00383 3.49015 9.16091C3.49015 12.318 6.04969 14.869 9.20677 14.869H19.0162ZM83.5136 17.9838C78.637 17.9838 74.6766 14.0375 74.6766 9.16091C74.6766 4.28435 78.637 0.323914 83.5136 0.323914H95.705L93.7177 3.43871H83.7391C80.582 3.43871 78.0169 6.00383 78.0169 9.16091C78.0169 12.318 80.582 14.869 83.7391 14.869H95.9868L93.9855 17.9838H83.5136ZM125.049 14.869C122.441 14.869 120.229 13.1213 119.552 10.7112H134.069L136.07 7.59645H119.552C120.229 5.20046 122.441 3.43871 125.049 3.43871H135.013L137.029 0.323914H124.823C119.947 0.323914 115.986 4.28435 115.986 9.16091C115.986 14.0375 119.947 17.9838 124.823 17.9838H135.295L137.297 14.869H125.049Z" fill="#EA1B22"/>
</svg>
