<svg xmlns="http://www.w3.org/2000/svg" xmlns:xlink="http://www.w3.org/1999/xlink" width="300" zoomAndPan="magnify" viewBox="0 0 224.87999 177.000001" height="110" preserveAspectRatio="xMidYMid meet" version="1.0">
<defs><g/><clipPath id="89a157d80b"><path d="M 75.152344 74.578125 L 98 74.578125 L 98 90 L 75.152344 90 Z M 75.152344 74.578125 " clip-rule="nonzero"/></clipPath><clipPath id="8fd63ad00e"><path d="M 76 78 L 102 78 L 102 101.425781 L 76 101.425781 Z M 76 78 " clip-rule="nonzero"/></clipPath></defs><g clip-path="url(#89a157d80b)"><path fill="#0a2841" d="M 79.644531 83.070312 C 79.574219 82.421875 79.535156 81.761719 79.535156 81.089844 L 79.539062 80.886719 C 80.527344 80.457031 81.554688 80.09375 82.613281 79.804688 C 83.59375 79.535156 84.601562 79.332031 85.632812 79.199219 C 86.503906 79.085938 87.390625 79.023438 88.292969 79.011719 L 88.574219 79.007812 C 89.570312 79.007812 90.554688 79.074219 91.515625 79.199219 C 92.351562 79.308594 93.171875 79.460938 93.976562 79.660156 L 97.507812 76.09375 C 97.28125 76.015625 97.058594 75.941406 96.832031 75.867188 C 96.316406 75.703125 95.792969 75.550781 95.261719 75.414062 C 93.121094 74.871094 90.882812 74.578125 88.574219 74.578125 C 86.265625 74.578125 84.027344 74.871094 81.886719 75.414062 C 81.359375 75.550781 80.835938 75.703125 80.316406 75.867188 C 79.917969 75.996094 79.519531 76.132812 79.125 76.28125 C 77.820312 76.769531 76.5625 77.355469 75.359375 78.035156 C 75.332031 78.242188 75.304688 78.453125 75.28125 78.664062 C 75.195312 79.460938 75.148438 80.269531 75.148438 81.089844 C 75.148438 81.847656 75.1875 82.597656 75.261719 83.335938 C 75.488281 85.605469 76.058594 87.777344 76.917969 89.789062 L 80.328125 86.347656 C 80 85.292969 79.769531 84.199219 79.644531 83.070312 Z M 79.644531 83.070312 " fill-opacity="1" fill-rule="evenodd"/></g><path fill="#4dc0e9" d="M 101.789062 78.035156 C 100.589844 77.355469 99.328125 76.769531 98.023438 76.28125 C 97.851562 76.21875 97.679688 76.15625 97.507812 76.09375 L 93.976562 79.660156 L 88.25 85.445312 L 84.734375 81.894531 L 81.691406 84.96875 L 81.632812 85.027344 L 81.746094 85.140625 L 88.25 91.710938 L 93.96875 85.933594 L 97.574219 82.292969 Z M 101.789062 78.035156 " fill-opacity="1" fill-rule="evenodd"/><g clip-path="url(#8fd63ad00e)"><path fill="#008fc5" d="M 97.574219 82.292969 C 97.554688 82.554688 97.53125 82.8125 97.503906 83.074219 C 96.859375 88.875 93.417969 93.824219 88.574219 96.515625 C 84.832031 94.4375 81.925781 91.007812 80.5 86.878906 C 80.441406 86.703125 80.382812 86.523438 80.328125 86.347656 L 76.917969 89.789062 C 76.988281 89.953125 77.058594 90.117188 77.132812 90.28125 C 78.582031 93.460938 80.753906 96.230469 83.441406 98.375 C 84.996094 99.613281 86.71875 100.644531 88.574219 101.425781 C 90.429688 100.644531 92.152344 99.613281 93.707031 98.375 C 98.210938 94.777344 101.277344 89.421875 101.886719 83.335938 C 101.960938 82.597656 102 81.847656 102 81.089844 C 102 80.269531 101.953125 79.460938 101.867188 78.664062 C 101.84375 78.453125 101.820312 78.242188 101.789062 78.035156 Z M 97.574219 82.292969 " fill-opacity="1" fill-rule="evenodd"/></g><path fill="#9e9e9f" d="M 97.980469 80.105469 L 97.976562 79.898438 C 97.980469 79.964844 97.980469 80.035156 97.980469 80.105469 Z M 97.980469 80.105469 " fill-opacity="1" fill-rule="evenodd"/><path fill="#4dc0e9" d="M 97.980469 80.105469 L 97.976562 79.898438 C 97.980469 79.964844 97.980469 80.035156 97.980469 80.105469 Z M 97.980469 80.105469 " fill-opacity="1" fill-rule="evenodd"/><g fill="#23242c" fill-opacity="1"><g transform="translate(107.293259, 90.088635)"><g><path d="M 4.859375 -4.625 L 4.859375 0 L 3.78125 0 L 1.75 -2.46875 L 1.75 0 L 0.46875 0 L 0.46875 -4.625 L 1.546875 -4.625 L 3.578125 -2.15625 L 3.578125 -4.625 Z M 4.859375 -4.625 "/></g></g></g><g fill="#23242c" fill-opacity="1"><g transform="translate(114.748094, 90.088635)"><g><path d="M 2.796875 0.09375 C 2.304688 0.09375 1.863281 -0.0078125 1.46875 -0.21875 C 1.082031 -0.425781 0.773438 -0.710938 0.546875 -1.078125 C 0.328125 -1.441406 0.21875 -1.851562 0.21875 -2.3125 C 0.21875 -2.769531 0.328125 -3.179688 0.546875 -3.546875 C 0.773438 -3.910156 1.082031 -4.195312 1.46875 -4.40625 C 1.863281 -4.613281 2.304688 -4.71875 2.796875 -4.71875 C 3.285156 -4.71875 3.722656 -4.613281 4.109375 -4.40625 C 4.503906 -4.195312 4.8125 -3.910156 5.03125 -3.546875 C 5.25 -3.179688 5.359375 -2.769531 5.359375 -2.3125 C 5.359375 -1.851562 5.25 -1.441406 5.03125 -1.078125 C 4.8125 -0.710938 4.503906 -0.425781 4.109375 -0.21875 C 3.722656 -0.0078125 3.285156 0.09375 2.796875 0.09375 Z M 2.796875 -0.984375 C 3.023438 -0.984375 3.234375 -1.039062 3.421875 -1.15625 C 3.617188 -1.269531 3.769531 -1.425781 3.875 -1.625 C 3.988281 -1.820312 4.046875 -2.050781 4.046875 -2.3125 C 4.046875 -2.570312 3.988281 -2.800781 3.875 -3 C 3.769531 -3.207031 3.617188 -3.363281 3.421875 -3.46875 C 3.234375 -3.582031 3.023438 -3.640625 2.796875 -3.640625 C 2.566406 -3.640625 2.351562 -3.582031 2.15625 -3.46875 C 1.96875 -3.363281 1.816406 -3.207031 1.703125 -3 C 1.597656 -2.800781 1.546875 -2.570312 1.546875 -2.3125 C 1.546875 -2.050781 1.597656 -1.820312 1.703125 -1.625 C 1.816406 -1.425781 1.96875 -1.269531 2.15625 -1.15625 C 2.351562 -1.039062 2.566406 -0.984375 2.796875 -0.984375 Z M 2.796875 -0.984375 "/></g></g></g><g fill="#23242c" fill-opacity="1"><g transform="translate(122.467268, 90.088635)"><g><path d="M 1.453125 -3.59375 L 0.03125 -3.59375 L 0.03125 -4.625 L 4.171875 -4.625 L 4.171875 -3.59375 L 2.75 -3.59375 L 2.75 0 L 1.453125 0 Z M 1.453125 -3.59375 "/></g></g></g><g fill="#23242c" fill-opacity="1"><g transform="translate(128.79205, 90.088635)"><g><path d="M 0.46875 -4.625 L 1.765625 -4.625 L 1.765625 0 L 0.46875 0 Z M 0.46875 -4.625 "/></g></g></g><g fill="#23242c" fill-opacity="1"><g transform="translate(133.160718, 90.088635)"><g><path d="M 1.765625 -3.609375 L 1.765625 -2.59375 L 3.8125 -2.59375 L 3.8125 -1.59375 L 1.765625 -1.59375 L 1.765625 0 L 0.46875 0 L 0.46875 -4.625 L 4.09375 -4.625 L 4.09375 -3.609375 Z M 1.765625 -3.609375 "/></g></g></g><g fill="#23242c" fill-opacity="1"><g transform="translate(139.531761, 90.088635)"><g><path d="M 2.9375 -1.65625 L 2.9375 0 L 1.625 0 L 1.625 -1.671875 L -0.125 -4.625 L 1.25 -4.625 L 2.34375 -2.796875 L 3.4375 -4.625 L 4.71875 -4.625 Z M 2.9375 -1.65625 "/></g></g></g></svg>