<svg width="172" height="40" viewBox="0 0 172 40" fill="none" xmlns="http://www.w3.org/2000/svg">
<path fill-rule="evenodd" clip-rule="evenodd" d="M0.299179 0.286664C0.693143 -0.100389 1.32628 -0.0947864 1.71334 0.299179C3.02398 1.63323 4.43552 2.9936 5.94279 4.36758C6.35094 4.73965 6.3802 5.37213 6.00814 5.78029C5.63608 6.18844 5.00359 6.2177 4.59544 5.84564C3.06198 4.44778 1.62393 3.06197 0.286664 1.70082C-0.100389 1.30686 -0.0947864 0.673717 0.299179 0.286664ZM171.207 0.292893C171.598 0.683418 171.598 1.31658 171.207 1.70711C169.763 3.15098 168.317 4.54713 166.869 5.89664C166.465 6.27317 165.832 6.25087 165.456 5.84683C165.079 5.44279 165.101 4.81002 165.505 4.4335C166.936 3.10025 168.365 1.72042 169.793 0.292893C170.183 -0.0976308 170.817 -0.0976308 171.207 0.292893ZM13.6468 12.0922C13.9788 11.6508 14.6057 11.5621 15.0471 11.894C18.07 14.1673 21.3249 16.4139 24.7884 18.5773C25.2568 18.8699 25.3994 19.4868 25.1068 19.9552C24.8142 20.4236 24.1973 20.5661 23.7289 20.2735C20.2155 18.079 16.913 15.7997 13.845 13.4925C13.4036 13.1605 13.3149 12.5336 13.6468 12.0922ZM157.992 12.2988C158.337 12.7305 158.266 13.3597 157.835 13.7042C154.605 16.2823 151.371 18.6414 148.137 20.7932C147.677 21.0991 147.056 20.9744 146.75 20.5146C146.444 20.0549 146.569 19.4341 147.029 19.1281C150.213 17.0091 153.401 14.6842 156.587 12.1412C157.019 11.7966 157.648 11.8672 157.992 12.2988ZM33.7271 24.8385C33.9783 24.3467 34.5806 24.1515 35.0725 24.4027C38.5089 26.1573 42.0943 27.8024 45.8119 29.2975C46.3243 29.5036 46.5726 30.086 46.3665 30.5984C46.1604 31.1108 45.578 31.3591 45.0656 31.1531C41.29 29.6346 37.6502 27.9645 34.163 26.1839C33.6711 25.9328 33.476 25.3304 33.7271 24.8385ZM138.28 25.5935C138.541 26.0805 138.357 26.6864 137.87 26.9469C134.239 28.8895 130.615 30.5855 127.007 32.0519C126.495 32.2598 125.912 32.0136 125.704 31.5019C125.496 30.9903 125.742 30.4069 126.254 30.199C129.796 28.7593 133.356 27.0933 136.927 25.1834C137.414 24.9229 138.02 25.1065 138.28 25.5935ZM55.7141 33.8555C55.8703 33.3258 56.4264 33.023 56.9562 33.1793C60.6809 34.2781 64.5077 35.2095 68.4226 35.94C68.9655 36.0414 69.3235 36.5636 69.2222 37.1065C69.1209 37.6494 68.5986 38.0074 68.0557 37.9061C64.0705 37.1625 60.1773 36.2148 56.3903 35.0976C55.8605 34.9413 55.5578 34.3852 55.7141 33.8555ZM116.336 34.7141C116.485 35.2459 116.175 35.7979 115.643 35.9471C111.701 37.0529 107.788 37.9004 103.914 38.5128C103.368 38.599 102.856 38.2267 102.77 37.6811C102.683 37.1356 103.056 36.6235 103.601 36.5373C107.4 35.9369 111.237 35.106 115.103 34.0214C115.635 33.8722 116.187 34.1824 116.336 34.7141ZM79.0359 38.3947C79.0774 37.844 79.5575 37.4312 80.1082 37.4728C83.9705 37.7641 87.8998 37.8456 91.8845 37.6887C92.4363 37.667 92.9013 38.0967 92.923 38.6486C92.9448 39.2005 92.515 39.6654 91.9632 39.6872C87.8996 39.8471 83.8937 39.764 79.9578 39.4671C79.4071 39.4256 78.9943 38.9454 79.0359 38.3947Z" fill="black"/>
</svg>
