<svg width="24" height="24" viewBox="0 0 24 24" fill="none" xmlns="http://www.w3.org/2000/svg">
<path d="M5.45973 2.92969C4.08973 2.92969 2.99074 4.02868 2.99074 5.39868V8.46069C2.99074 9.83069 4.08973 10.9297 5.45973 10.9297H8.52173C9.89173 10.9297 10.9907 9.83069 10.9907 8.46069V5.39868C10.9907 4.02868 9.89173 2.92969 8.52173 2.92969H5.45973ZM14.9907 2.92969C13.8857 2.92969 12.9907 3.82469 12.9907 4.92969V8.92969C12.9907 10.0347 13.8857 10.9297 14.9907 10.9297H18.9907C20.0957 10.9297 20.9907 10.0347 20.9907 8.92969V4.92969C20.9907 3.82469 20.0957 2.92969 18.9907 2.92969H14.9907ZM14.9907 4.92969H18.9907V8.92969H14.9907V4.92969ZM8.14674 5.58569C8.34273 5.38969 8.63872 5.38969 8.83472 5.58569C9.03072 5.78269 9.03072 6.07768 8.83472 6.27368L6.83473 8.27368C6.63873 8.46968 6.34274 8.46968 6.14674 8.27368L5.14674 7.27368C4.95074 7.07668 4.95074 6.78169 5.14674 6.58569C5.34274 6.38969 5.63873 6.38969 5.83473 6.58569L6.49073 7.2417L8.14674 5.58569ZM4.99073 12.9297C3.88574 12.9297 2.99074 13.8247 2.99074 14.9297V18.9297C2.99074 20.0347 3.88574 20.9297 4.99073 20.9297H8.99073C10.0957 20.9297 10.9907 20.0347 10.9907 18.9297V14.9297C10.9907 13.8247 10.0957 12.9297 8.99073 12.9297H4.99073ZM14.9907 12.9297C13.8857 12.9297 12.9907 13.8247 12.9907 14.9297V18.9297C12.9907 20.0347 13.8857 20.9297 14.9907 20.9297H18.9907C20.0957 20.9297 20.9907 20.0347 20.9907 18.9297V14.9297C20.9907 13.8247 20.0957 12.9297 18.9907 12.9297H14.9907ZM4.99073 14.9297H8.99073V18.9297H4.99073V14.9297ZM14.9907 14.9297H18.9907V18.9297H14.9907V14.9297Z" fill="black"/>
</svg>
